<mxfile host="Electron" agent="Mozilla/5.0 (Windows NT 10.0; Win64; x64) AppleWebKit/537.36 (KHTML, like Gecko) draw.io/26.2.2 Chrome/134.0.6998.178 Electron/35.1.2 Safari/537.36" version="26.2.2" pages="4">
  <diagram name="High_Level" id="OKON3zWhG3QATjfmwbhX">
    <mxGraphModel dx="2068" dy="889" grid="0" gridSize="10" guides="1" tooltips="1" connect="1" arrows="1" fold="1" page="1" pageScale="1" pageWidth="850" pageHeight="1100" background="#ffffff" math="0" shadow="0">
      <root>
        <mxCell id="0" />
        <mxCell id="1" parent="0" />
        <mxCell id="SkERrc7xlaR81hcz-HTL-3" value="&lt;h1 style=&quot;margin-top: 0px;&quot;&gt;Do we need?&lt;/h1&gt;&lt;p&gt;&lt;br&gt;&lt;/p&gt;" style="text;html=1;whiteSpace=wrap;overflow=hidden;rounded=0;" vertex="1" parent="1">
          <mxGeometry x="18.98" y="949" width="180" height="120" as="geometry" />
        </mxCell>
        <mxCell id="ilx29WKz-HwdSwg4v964-1" style="shape=flexArrow;rounded=0;sketch=0;orthogonalLoop=1;jettySize=auto;html=1;shadow=0;strokeColor=none;strokeWidth=2;fontSize=5;startArrow=none;startFill=0;fillColor=#cce5ff;endArrow=none;endFill=0;entryX=0.5;entryY=0.476;entryDx=0;entryDy=0;entryPerimeter=0;edgeStyle=elbowEdgeStyle;endSize=4;startSize=4;" parent="1" edge="1">
          <mxGeometry relative="1" as="geometry">
            <Array as="points">
              <mxPoint x="327.58" y="598.07" />
            </Array>
            <mxPoint x="327.58" y="467.00341930723704" as="sourcePoint" />
            <mxPoint x="121.15999999999993" y="677.062" as="targetPoint" />
          </mxGeometry>
        </mxCell>
        <mxCell id="ilx29WKz-HwdSwg4v964-2" value="" style="shape=filledEdge;rounded=0;fixDash=1;endArrow=none;strokeWidth=16;fillColor=#cce5ff;html=1;sketch=0;strokeColor=none;fontSize=10;" parent="1" source="ilx29WKz-HwdSwg4v964-21" target="ilx29WKz-HwdSwg4v964-24" edge="1">
          <mxGeometry width="60" height="40" relative="1" as="geometry">
            <mxPoint x="495" y="779" as="sourcePoint" />
            <mxPoint x="105.15320274240935" y="449.5" as="targetPoint" />
          </mxGeometry>
        </mxCell>
        <mxCell id="ilx29WKz-HwdSwg4v964-3" style="edgeStyle=elbowEdgeStyle;shape=flexArrow;rounded=0;sketch=0;orthogonalLoop=1;jettySize=auto;html=1;shadow=0;strokeColor=none;strokeWidth=4;fontSize=10;startArrow=none;startFill=0;fillColor=#cce5ff;endSize=6;startSize=6;endArrow=none;endFill=0;" parent="1" edge="1">
          <mxGeometry relative="1" as="geometry">
            <mxPoint x="756.42" y="468.9996426923479" as="sourcePoint" />
            <mxPoint x="147.99999999999994" y="676.55" as="targetPoint" />
            <Array as="points">
              <mxPoint x="756.42" y="596.55" />
            </Array>
          </mxGeometry>
        </mxCell>
        <mxCell id="ilx29WKz-HwdSwg4v964-4" style="edgeStyle=elbowEdgeStyle;shape=flexArrow;rounded=0;sketch=0;orthogonalLoop=1;jettySize=auto;html=1;shadow=0;strokeColor=none;strokeWidth=4;fontSize=10;startArrow=none;startFill=0;fillColor=#cce5ff;endArrow=none;endFill=0;" parent="1" edge="1">
          <mxGeometry relative="1" as="geometry">
            <Array as="points">
              <mxPoint x="530" y="597.05" />
            </Array>
            <mxPoint x="530" y="473.997182375317" as="sourcePoint" />
            <mxPoint x="131.57999999999993" y="677.05" as="targetPoint" />
          </mxGeometry>
        </mxCell>
        <mxCell id="ilx29WKz-HwdSwg4v964-5" style="edgeStyle=none;rounded=0;orthogonalLoop=1;jettySize=auto;html=1;strokeWidth=2;fontSize=10;fillColor=#ffe6cc;strokeColor=#d79b00;startArrow=none;startFill=0;endArrow=none;endFill=0;" parent="1" source="ilx29WKz-HwdSwg4v964-7" target="ilx29WKz-HwdSwg4v964-16" edge="1">
          <mxGeometry relative="1" as="geometry" />
        </mxCell>
        <mxCell id="ilx29WKz-HwdSwg4v964-6" value="/api/" style="edgeLabel;html=1;align=center;verticalAlign=middle;resizable=0;points=[];fontSize=11;fontColor=#7D5A00;labelBorderColor=none;labelBackgroundColor=default;" parent="ilx29WKz-HwdSwg4v964-5" connectable="0" vertex="1">
          <mxGeometry x="-0.2106" relative="1" as="geometry">
            <mxPoint x="9" y="-14" as="offset" />
          </mxGeometry>
        </mxCell>
        <mxCell id="ilx29WKz-HwdSwg4v964-7" value="Web server" style="fontColor=#0066CC;verticalAlign=top;verticalLabelPosition=bottom;labelPosition=center;align=center;html=1;outlineConnect=0;fillColor=#CCCCCC;strokeColor=default;gradientColor=none;gradientDirection=north;strokeWidth=2;shape=mxgraph.networks.web_server;shadow=0;" parent="1" vertex="1">
          <mxGeometry x="300" y="130" width="27.58" height="40" as="geometry" />
        </mxCell>
        <mxCell id="ilx29WKz-HwdSwg4v964-8" style="edgeStyle=none;rounded=0;orthogonalLoop=1;jettySize=auto;html=1;strokeColor=#0049f5;strokeWidth=2;fontSize=10;startArrow=none;startFill=0;endArrow=none;endFill=0;" parent="1" source="ilx29WKz-HwdSwg4v964-9" target="ilx29WKz-HwdSwg4v964-7" edge="1">
          <mxGeometry relative="1" as="geometry" />
        </mxCell>
        <mxCell id="ilx29WKz-HwdSwg4v964-9" value="Client / browser" style="fontColor=#0066CC;verticalAlign=top;verticalLabelPosition=bottom;labelPosition=center;align=center;html=1;outlineConnect=0;fillColor=#CCCCCC;strokeColor=#6881B3;gradientColor=none;gradientDirection=north;strokeWidth=2;shape=mxgraph.networks.laptop;" parent="1" vertex="1">
          <mxGeometry x="90" y="80" width="30" height="20" as="geometry" />
        </mxCell>
        <mxCell id="ilx29WKz-HwdSwg4v964-10" style="edgeStyle=elbowEdgeStyle;rounded=0;orthogonalLoop=1;jettySize=auto;html=1;strokeColor=#d79b00;strokeWidth=2;fontSize=10;fillColor=#ffe6cc;endArrow=none;endFill=0;elbow=vertical;" parent="1" source="ilx29WKz-HwdSwg4v964-16" target="ilx29WKz-HwdSwg4v964-29" edge="1">
          <mxGeometry relative="1" as="geometry">
            <Array as="points">
              <mxPoint x="420" y="300" />
            </Array>
            <mxPoint x="312.5799999999999" y="402" as="targetPoint" />
          </mxGeometry>
        </mxCell>
        <mxCell id="ilx29WKz-HwdSwg4v964-11" value="/movies/" style="edgeLabel;html=1;align=center;verticalAlign=middle;resizable=0;points=[];fontSize=11;fontColor=#7D5A00;labelBorderColor=none;labelBackgroundColor=default;" parent="ilx29WKz-HwdSwg4v964-10" connectable="0" vertex="1">
          <mxGeometry x="-0.2732" relative="1" as="geometry">
            <mxPoint x="-167" y="19" as="offset" />
          </mxGeometry>
        </mxCell>
        <mxCell id="ilx29WKz-HwdSwg4v964-12" style="edgeStyle=elbowEdgeStyle;rounded=0;orthogonalLoop=1;jettySize=auto;html=1;strokeColor=#d79b00;strokeWidth=2;fontSize=10;fillColor=#ffe6cc;endArrow=none;endFill=0;elbow=vertical;" parent="1" source="ilx29WKz-HwdSwg4v964-16" target="ilx29WKz-HwdSwg4v964-25" edge="1">
          <mxGeometry relative="1" as="geometry">
            <mxPoint x="532" y="400" as="targetPoint" />
          </mxGeometry>
        </mxCell>
        <mxCell id="ilx29WKz-HwdSwg4v964-13" value="/bookings/" style="edgeLabel;html=1;align=left;verticalAlign=middle;resizable=0;points=[];fontSize=11;fontColor=#7D5A00;labelBorderColor=none;labelBackgroundColor=default;" parent="ilx29WKz-HwdSwg4v964-12" connectable="0" vertex="1">
          <mxGeometry x="-0.2472" y="-1" relative="1" as="geometry">
            <mxPoint x="-26" y="53" as="offset" />
          </mxGeometry>
        </mxCell>
        <mxCell id="ilx29WKz-HwdSwg4v964-14" style="edgeStyle=elbowEdgeStyle;rounded=0;orthogonalLoop=1;jettySize=auto;html=1;strokeColor=#d79b00;strokeWidth=2;fontSize=10;fillColor=#ffe6cc;endArrow=none;endFill=0;elbow=vertical;" parent="1" source="ilx29WKz-HwdSwg4v964-16" target="ilx29WKz-HwdSwg4v964-26" edge="1">
          <mxGeometry relative="1" as="geometry">
            <Array as="points">
              <mxPoint x="630" y="300" />
            </Array>
            <mxPoint x="750" y="400" as="targetPoint" />
          </mxGeometry>
        </mxCell>
        <mxCell id="ilx29WKz-HwdSwg4v964-15" value="/payments/" style="edgeLabel;html=1;align=center;verticalAlign=middle;resizable=0;points=[];fontSize=11;fontColor=#7D5A00;labelBorderColor=none;labelBackgroundColor=default;" parent="ilx29WKz-HwdSwg4v964-14" connectable="0" vertex="1">
          <mxGeometry x="0.453" y="-1" relative="1" as="geometry">
            <mxPoint x="1" y="16" as="offset" />
          </mxGeometry>
        </mxCell>
        <mxCell id="ilx29WKz-HwdSwg4v964-17" style="edgeStyle=none;rounded=0;orthogonalLoop=1;jettySize=auto;html=1;strokeColor=#0049f5;strokeWidth=2;fontSize=10;startArrow=none;startFill=0;endArrow=none;endFill=0;" parent="1" source="ilx29WKz-HwdSwg4v964-18" target="ilx29WKz-HwdSwg4v964-7" edge="1">
          <mxGeometry relative="1" as="geometry" />
        </mxCell>
        <mxCell id="ilx29WKz-HwdSwg4v964-18" value="Client / browser" style="fontColor=#0066CC;verticalAlign=top;verticalLabelPosition=bottom;labelPosition=center;align=center;html=1;outlineConnect=0;fillColor=#CCCCCC;strokeColor=#6881B3;gradientColor=none;gradientDirection=north;strokeWidth=2;shape=mxgraph.networks.mobile;" parent="1" vertex="1">
          <mxGeometry x="97.5" y="143" width="15" height="25" as="geometry" />
        </mxCell>
        <mxCell id="ilx29WKz-HwdSwg4v964-19" style="edgeStyle=none;rounded=0;orthogonalLoop=1;jettySize=auto;html=1;strokeColor=#0049f5;strokeWidth=2;fontSize=10;startArrow=none;startFill=0;endArrow=none;endFill=0;" parent="1" source="ilx29WKz-HwdSwg4v964-20" target="ilx29WKz-HwdSwg4v964-7" edge="1">
          <mxGeometry relative="1" as="geometry" />
        </mxCell>
        <mxCell id="ilx29WKz-HwdSwg4v964-20" value="Client / browser" style="fontColor=#0066CC;verticalAlign=top;verticalLabelPosition=bottom;labelPosition=center;align=center;html=1;outlineConnect=0;fillColor=#CCCCCC;strokeColor=#6881B3;gradientColor=none;gradientDirection=north;strokeWidth=2;shape=mxgraph.networks.pc;" parent="1" vertex="1">
          <mxGeometry x="90" y="223" width="30" height="30" as="geometry" />
        </mxCell>
        <mxCell id="ilx29WKz-HwdSwg4v964-21" value="REDIS&lt;br&gt;Cache/Queue&lt;br&gt;Server" style="sketch=0;aspect=fixed;html=1;points=[];align=center;image;fontSize=12;image=img/lib/mscae/Cache_Redis_Product.svg;" parent="1" vertex="1">
          <mxGeometry x="81.57999999999998" y="659" width="50" height="42" as="geometry" />
        </mxCell>
        <mxCell id="ilx29WKz-HwdSwg4v964-22" style="edgeStyle=elbowEdgeStyle;rounded=0;orthogonalLoop=1;jettySize=auto;html=1;strokeColor=#d79b00;strokeWidth=2;fontSize=10;fillColor=#ffe6cc;endArrow=none;endFill=0;elbow=vertical;" parent="1" source="ilx29WKz-HwdSwg4v964-16" target="ilx29WKz-HwdSwg4v964-24" edge="1">
          <mxGeometry relative="1" as="geometry">
            <mxPoint x="540.0900000000001" y="160" as="sourcePoint" />
            <mxPoint x="105" y="400" as="targetPoint" />
            <Array as="points">
              <mxPoint x="320" y="300" />
            </Array>
          </mxGeometry>
        </mxCell>
        <mxCell id="ilx29WKz-HwdSwg4v964-23" value="/users/" style="edgeLabel;html=1;align=center;verticalAlign=middle;resizable=0;points=[];fontSize=11;fontColor=#7D5A00;labelBorderColor=none;labelBackgroundColor=default;" parent="ilx29WKz-HwdSwg4v964-22" connectable="0" vertex="1">
          <mxGeometry x="-0.1126" y="-2" relative="1" as="geometry">
            <mxPoint x="-292" y="19" as="offset" />
          </mxGeometry>
        </mxCell>
        <mxCell id="ilx29WKz-HwdSwg4v964-24" value="User&lt;br&gt;Service" style="image;aspect=fixed;perimeter=ellipsePerimeter;html=1;align=center;shadow=0;dashed=0;fontColor=#4277BB;labelBackgroundColor=default;fontSize=12;spacingTop=3;image=img/lib/ibm/applications/microservice.svg;imageBackground=none;imageBorder=none;" parent="1" vertex="1">
          <mxGeometry x="81.58" y="348" width="54.8" height="40" as="geometry" />
        </mxCell>
        <mxCell id="ilx29WKz-HwdSwg4v964-25" value="Booking&lt;br&gt;Service" style="image;aspect=fixed;perimeter=ellipsePerimeter;html=1;align=center;shadow=0;dashed=0;fontColor=#4277BB;labelBackgroundColor=default;fontSize=12;spacingTop=3;image=img/lib/ibm/applications/microservice.svg;imageBackground=none;imageBorder=none;" parent="1" vertex="1">
          <mxGeometry x="504.59" y="437" width="54.8" height="40" as="geometry" />
        </mxCell>
        <mxCell id="ilx29WKz-HwdSwg4v964-26" value="Payment&lt;br&gt;Service" style="image;aspect=fixed;perimeter=ellipsePerimeter;html=1;align=center;shadow=0;dashed=0;fontColor=#4277BB;labelBackgroundColor=default;fontSize=12;spacingTop=3;image=img/lib/ibm/applications/microservice.svg;imageBackground=none;imageBorder=none;" parent="1" vertex="1">
          <mxGeometry x="730.0000000000001" y="437" width="54.8" height="40" as="geometry" />
        </mxCell>
        <mxCell id="ilx29WKz-HwdSwg4v964-28" value="" style="edgeStyle=none;rounded=0;sketch=0;orthogonalLoop=1;jettySize=auto;html=1;strokeColor=#82b366;strokeWidth=2;fontSize=10;startArrow=none;startFill=0;fillColor=#d5e8d4;endArrow=none;endFill=0;" parent="1" target="ilx29WKz-HwdSwg4v964-29" edge="1">
          <mxGeometry relative="1" as="geometry">
            <mxPoint x="327.0521797427152" y="449.5" as="sourcePoint" />
            <mxPoint x="423" y="607" as="targetPoint" />
          </mxGeometry>
        </mxCell>
        <mxCell id="ilx29WKz-HwdSwg4v964-29" value="Movie&lt;br&gt;Service" style="image;aspect=fixed;perimeter=ellipsePerimeter;html=1;align=center;shadow=0;dashed=0;fontColor=#4277BB;labelBackgroundColor=default;fontSize=12;spacingTop=3;image=img/lib/ibm/applications/microservice.svg;imageBackground=none;imageBorder=none;" parent="1" vertex="1">
          <mxGeometry x="300.18" y="437" width="54.8" height="40" as="geometry" />
        </mxCell>
        <mxCell id="ilx29WKz-HwdSwg4v964-30" style="rounded=0;orthogonalLoop=1;jettySize=auto;html=1;dashed=1;strokeWidth=2;startArrow=none;startFill=0;strokeColor=#ee6363;entryX=1;entryY=0.5;entryDx=0;entryDy=0;exitX=0;exitY=0.5;exitDx=0;exitDy=0;" parent="1" source="ilx29WKz-HwdSwg4v964-25" target="ilx29WKz-HwdSwg4v964-24" edge="1">
          <mxGeometry relative="1" as="geometry">
            <mxPoint x="338.8299999999999" y="368.8556512534283" as="sourcePoint" />
            <mxPoint x="161" y="367.1443487465717" as="targetPoint" />
          </mxGeometry>
        </mxCell>
        <mxCell id="ilx29WKz-HwdSwg4v964-31" value="validate&lt;br&gt;user/token" style="edgeLabel;html=1;align=center;verticalAlign=middle;resizable=0;points=[];fontColor=#EE6363;" parent="ilx29WKz-HwdSwg4v964-30" connectable="0" vertex="1">
          <mxGeometry x="0.1248" relative="1" as="geometry">
            <mxPoint x="-2" y="1" as="offset" />
          </mxGeometry>
        </mxCell>
        <mxCell id="ilx29WKz-HwdSwg4v964-32" style="rounded=0;orthogonalLoop=1;jettySize=auto;html=1;dashed=1;strokeWidth=2;startArrow=none;startFill=0;strokeColor=#ee6363;entryX=1;entryY=0.5;entryDx=0;entryDy=0;exitX=0;exitY=0.5;exitDx=0;exitDy=0;" parent="1" source="ilx29WKz-HwdSwg4v964-29" target="ilx29WKz-HwdSwg4v964-24" edge="1">
          <mxGeometry relative="1" as="geometry">
            <mxPoint x="310" y="462" as="sourcePoint" />
            <mxPoint x="146" y="378" as="targetPoint" />
          </mxGeometry>
        </mxCell>
        <mxCell id="ilx29WKz-HwdSwg4v964-33" value="validate&lt;br&gt;user/token" style="edgeLabel;html=1;align=center;verticalAlign=middle;resizable=0;points=[];fontColor=#EE6363;" parent="ilx29WKz-HwdSwg4v964-32" connectable="0" vertex="1">
          <mxGeometry x="0.1248" relative="1" as="geometry">
            <mxPoint x="-2" y="1" as="offset" />
          </mxGeometry>
        </mxCell>
        <mxCell id="ilx29WKz-HwdSwg4v964-34" style="rounded=0;orthogonalLoop=1;jettySize=auto;html=1;dashed=1;strokeWidth=2;startArrow=none;startFill=0;strokeColor=#ee6363;entryX=1;entryY=0.5;entryDx=0;entryDy=0;exitX=0;exitY=0.5;exitDx=0;exitDy=0;" parent="1" source="ilx29WKz-HwdSwg4v964-26" target="ilx29WKz-HwdSwg4v964-24" edge="1">
          <mxGeometry relative="1" as="geometry">
            <mxPoint x="515" y="467" as="sourcePoint" />
            <mxPoint x="146" y="378" as="targetPoint" />
          </mxGeometry>
        </mxCell>
        <mxCell id="ilx29WKz-HwdSwg4v964-35" value="validate&lt;br&gt;user/token" style="edgeLabel;html=1;align=center;verticalAlign=middle;resizable=0;points=[];fontColor=#EE6363;" parent="ilx29WKz-HwdSwg4v964-34" connectable="0" vertex="1">
          <mxGeometry x="0.1248" relative="1" as="geometry">
            <mxPoint x="-2" y="1" as="offset" />
          </mxGeometry>
        </mxCell>
        <mxCell id="ilx29WKz-HwdSwg4v964-36" value="&lt;span style=&quot;font-size: 11px; text-wrap-mode: nowrap; background-color: rgb(255, 255, 255);&quot;&gt;&amp;lt;&amp;lt;cache/pub‑sub&amp;gt;&amp;gt;&lt;/span&gt;" style="text;html=1;align=center;verticalAlign=middle;whiteSpace=wrap;rounded=0;" parent="1" vertex="1">
          <mxGeometry x="400" y="687" width="60" height="30" as="geometry" />
        </mxCell>
        <mxCell id="ilx29WKz-HwdSwg4v964-37" value="&amp;lt;&amp;lt;cache/pub‑sub&amp;gt;&amp;gt;" style="text;html=1;align=center;verticalAlign=middle;whiteSpace=wrap;rounded=0;rotation=-90;" parent="1" vertex="1">
          <mxGeometry x="52.5" y="594" width="60" height="30" as="geometry" />
        </mxCell>
        <mxCell id="ilx29WKz-HwdSwg4v964-38" value="&amp;lt;&amp;lt;cache/pub‑sub&amp;gt;&amp;gt;" style="text;html=1;align=center;verticalAlign=middle;whiteSpace=wrap;rounded=0;rotation=-90;" parent="1" vertex="1">
          <mxGeometry x="274" y="600" width="60" height="30" as="geometry" />
        </mxCell>
        <mxCell id="ilx29WKz-HwdSwg4v964-41" value="DB (Mongo)&lt;br&gt;Server" style="aspect=fixed;perimeter=ellipsePerimeter;html=1;align=center;shadow=0;dashed=0;spacingTop=3;image;image=img/lib/active_directory/database_server.svg;" parent="1" vertex="1">
          <mxGeometry x="388" y="600" width="24.6" height="30" as="geometry" />
        </mxCell>
        <mxCell id="ilx29WKz-HwdSwg4v964-42" style="edgeStyle=none;rounded=0;sketch=0;orthogonalLoop=1;jettySize=auto;html=1;strokeColor=#82b366;strokeWidth=2;fontSize=10;startArrow=none;startFill=0;fillColor=#d5e8d4;endArrow=none;endFill=0;exitX=0;exitY=0.5;exitDx=0;exitDy=0;" parent="1" source="ilx29WKz-HwdSwg4v964-26" target="ilx29WKz-HwdSwg4v964-41" edge="1">
          <mxGeometry relative="1" as="geometry">
            <mxPoint x="724.8299999999999" y="436.3038434978216" as="sourcePoint" />
          </mxGeometry>
        </mxCell>
        <mxCell id="ilx29WKz-HwdSwg4v964-43" style="edgeStyle=none;rounded=0;sketch=0;orthogonalLoop=1;jettySize=auto;html=1;strokeColor=#82b366;strokeWidth=2;fontSize=10;startArrow=none;startFill=0;fillColor=#d5e8d4;endArrow=none;endFill=0;exitX=1;exitY=0.5;exitDx=0;exitDy=0;" parent="1" source="ilx29WKz-HwdSwg4v964-24" target="ilx29WKz-HwdSwg4v964-41" edge="1">
          <mxGeometry relative="1" as="geometry">
            <mxPoint x="120" y="433.7072314773277" as="sourcePoint" />
          </mxGeometry>
        </mxCell>
        <mxCell id="ilx29WKz-HwdSwg4v964-44" style="edgeStyle=none;rounded=0;sketch=0;orthogonalLoop=1;jettySize=auto;html=1;strokeColor=#82b366;strokeWidth=2;fontSize=10;startArrow=none;startFill=0;fillColor=#d5e8d4;endArrow=none;endFill=0;exitX=1;exitY=0.5;exitDx=0;exitDy=0;" parent="1" source="ilx29WKz-HwdSwg4v964-29" target="ilx29WKz-HwdSwg4v964-41" edge="1">
          <mxGeometry relative="1" as="geometry">
            <mxPoint x="327.0521797427152" y="449.5" as="sourcePoint" />
          </mxGeometry>
        </mxCell>
        <mxCell id="ilx29WKz-HwdSwg4v964-45" style="edgeStyle=none;rounded=0;sketch=0;orthogonalLoop=1;jettySize=auto;html=1;strokeColor=#82b366;strokeWidth=2;fontSize=10;startArrow=none;startFill=0;fillColor=#d5e8d4;endArrow=none;endFill=0;exitX=0;exitY=0.5;exitDx=0;exitDy=0;" parent="1" source="ilx29WKz-HwdSwg4v964-25" target="ilx29WKz-HwdSwg4v964-41" edge="1">
          <mxGeometry relative="1" as="geometry">
            <mxPoint x="518.8880305177709" y="450" as="sourcePoint" />
          </mxGeometry>
        </mxCell>
        <mxCell id="SkERrc7xlaR81hcz-HTL-1" value="&lt;span style=&quot;font-size: 11px; text-wrap-mode: nowrap; background-color: rgb(255, 255, 255);&quot;&gt;&amp;lt;&amp;lt;&amp;lt; &amp;gt;&amp;gt;&amp;gt;&lt;/span&gt;" style="text;html=1;align=center;verticalAlign=middle;whiteSpace=wrap;rounded=0;" vertex="1" parent="1">
          <mxGeometry x="400" y="263" width="60" height="30" as="geometry" />
        </mxCell>
        <mxCell id="ilx29WKz-HwdSwg4v964-16" value="&lt;span style=&quot;background-color: light-dark(#ffffff, var(--ge-dark-color, #121212));&quot;&gt;API Gateway /&lt;br&gt;&amp;nbsp;Loadbalancer&lt;/span&gt;" style="fontColor=#0066CC;verticalAlign=top;verticalLabelPosition=bottom;labelPosition=center;align=center;html=1;outlineConnect=0;fillColor=#CCCCCC;strokeColor=default;gradientColor=none;gradientDirection=north;strokeWidth=2;shape=mxgraph.networks.load_balancer;" parent="1" vertex="1">
          <mxGeometry x="496.64" y="143" width="70.71" height="20" as="geometry" />
        </mxCell>
        <mxCell id="SkERrc7xlaR81hcz-HTL-2" value="Notification&lt;div&gt;Microservice&lt;/div&gt;" style="image;aspect=fixed;perimeter=ellipsePerimeter;html=1;align=center;shadow=0;dashed=0;fontColor=#4277BB;labelBackgroundColor=default;fontSize=12;spacingTop=3;image=img/lib/ibm/applications/microservice.svg;imageBackground=none;imageBorder=none;" vertex="1" parent="1">
          <mxGeometry x="68.00000000000011" y="989" width="54.8" height="40" as="geometry" />
        </mxCell>
        <mxCell id="SkERrc7xlaR81hcz-HTL-6" value="&amp;lt;&amp;lt;cache/pub‑sub&amp;gt;&amp;gt;" style="text;html=1;align=center;verticalAlign=middle;whiteSpace=wrap;rounded=0;rotation=-90;" vertex="1" parent="1">
          <mxGeometry x="522" y="600" width="60" height="30" as="geometry" />
        </mxCell>
        <mxCell id="SkERrc7xlaR81hcz-HTL-7" value="&amp;lt;&amp;lt;cache/pub‑sub&amp;gt;&amp;gt;" style="text;html=1;align=center;verticalAlign=middle;whiteSpace=wrap;rounded=0;rotation=-90;" vertex="1" parent="1">
          <mxGeometry x="748" y="600" width="60" height="30" as="geometry" />
        </mxCell>
      </root>
    </mxGraphModel>
  </diagram>
  <diagram id="dROM_Gyk6N_gRxQRS0bQ" name="MicroService_Level">
    <mxGraphModel dx="3182" dy="1368" grid="0" gridSize="10" guides="1" tooltips="1" connect="1" arrows="1" fold="1" page="1" pageScale="1" pageWidth="850" pageHeight="1100" background="#ffffff" math="0" shadow="0">
      <root>
        <mxCell id="0" />
        <mxCell id="1" parent="0" />
        <mxCell id="EOlDs6DDx3P3wy995GW2-6" value="" style="rounded=0;whiteSpace=wrap;html=1;fillColor=#fff2cc;strokeColor=#d6b656;" vertex="1" parent="1">
          <mxGeometry x="1128" y="141" width="240" height="760" as="geometry" />
        </mxCell>
        <mxCell id="EOlDs6DDx3P3wy995GW2-2" value="" style="rounded=0;whiteSpace=wrap;html=1;fillColor=#fff2cc;strokeColor=#d6b656;" vertex="1" parent="1">
          <mxGeometry x="328" y="141" width="240" height="200" as="geometry" />
        </mxCell>
        <mxCell id="EOlDs6DDx3P3wy995GW2-3" value="" style="rounded=0;whiteSpace=wrap;html=1;fillColor=#fff2cc;strokeColor=#d6b656;" vertex="1" parent="1">
          <mxGeometry x="328" y="421" width="240" height="200" as="geometry" />
        </mxCell>
        <mxCell id="EOlDs6DDx3P3wy995GW2-4" value="" style="rounded=0;whiteSpace=wrap;html=1;fillColor=#fff2cc;strokeColor=#d6b656;" vertex="1" parent="1">
          <mxGeometry x="328" y="701" width="240" height="200" as="geometry" />
        </mxCell>
        <mxCell id="EOlDs6DDx3P3wy995GW2-5" value="" style="rounded=0;whiteSpace=wrap;html=1;fillColor=#e1d5e7;strokeColor=#9673a6;" vertex="1" parent="1">
          <mxGeometry x="728" y="421" width="240" height="200" as="geometry" />
        </mxCell>
        <mxCell id="EOlDs6DDx3P3wy995GW2-7" value="Infrastructure" style="text;html=1;align=center;verticalAlign=middle;whiteSpace=wrap;rounded=0;fillColor=#ffe6cc;strokeColor=#d79b00;sketch=1;curveFitting=1;jiggle=2;" vertex="1" parent="1">
          <mxGeometry x="1138" y="151" width="90" height="30" as="geometry" />
        </mxCell>
        <mxCell id="EOlDs6DDx3P3wy995GW2-10" value="" style="sketch=0;points=[[0,0,0],[0.25,0,0],[0.5,0,0],[0.75,0,0],[1,0,0],[0,1,0],[0.25,1,0],[0.5,1,0],[0.75,1,0],[1,1,0],[0,0.25,0],[0,0.5,0],[0,0.75,0],[1,0.25,0],[1,0.5,0],[1,0.75,0]];outlineConnect=0;fontColor=#232F3E;fillColor=light-dark(#599736, #32b532);strokeColor=#ffffff;dashed=0;verticalLabelPosition=bottom;verticalAlign=top;align=center;html=1;fontSize=12;fontStyle=0;aspect=fixed;shape=mxgraph.aws4.resourceIcon;resIcon=mxgraph.aws4.documentdb_with_mongodb_compatibility;" vertex="1" parent="1">
          <mxGeometry x="1209" y="291" width="78" height="78" as="geometry" />
        </mxCell>
        <mxCell id="EOlDs6DDx3P3wy995GW2-11" value="" style="image;sketch=0;aspect=fixed;html=1;points=[];align=center;fontSize=12;image=img/lib/mscae/Cache_Redis_Product.svg;" vertex="1" parent="1">
          <mxGeometry x="1199.19" y="671" width="97.62" height="82" as="geometry" />
        </mxCell>
        <mxCell id="EOlDs6DDx3P3wy995GW2-14" value="" style="endArrow=classic;startArrow=classic;html=1;rounded=0;entryX=0.25;entryY=0;entryDx=0;entryDy=0;entryPerimeter=0;exitX=0.75;exitY=0;exitDx=0;exitDy=0;strokeWidth=3;fillColor=#d5e8d4;strokeColor=#82b366;" edge="1" parent="1" source="EOlDs6DDx3P3wy995GW2-26" target="EOlDs6DDx3P3wy995GW2-10">
          <mxGeometry width="50" height="50" relative="1" as="geometry">
            <mxPoint x="493" y="181" as="sourcePoint" />
            <mxPoint x="748" y="441" as="targetPoint" />
            <Array as="points">
              <mxPoint x="608" y="141" />
              <mxPoint x="1088" y="141" />
            </Array>
          </mxGeometry>
        </mxCell>
        <mxCell id="EOlDs6DDx3P3wy995GW2-27" value="&lt;font style=&quot;font-size: 15px; color: rgb(0, 102, 0);&quot;&gt;&lt;i style=&quot;&quot;&gt;&lt;b&gt;&amp;nbsp;CRUD&amp;nbsp;&lt;/b&gt;&lt;/i&gt;&lt;/font&gt;" style="edgeLabel;html=1;align=center;verticalAlign=middle;resizable=0;points=[];" vertex="1" connectable="0" parent="EOlDs6DDx3P3wy995GW2-14">
          <mxGeometry x="-0.1013" relative="1" as="geometry">
            <mxPoint x="-99" as="offset" />
          </mxGeometry>
        </mxCell>
        <mxCell id="EOlDs6DDx3P3wy995GW2-21" value="&lt;b&gt;User Service&lt;/b&gt;" style="text;html=1;align=center;verticalAlign=middle;whiteSpace=wrap;rounded=0;fillColor=light-dark(#E1D5E7,#512D2B);strokeColor=light-dark(#673e79, #d7817e);sketch=1;curveFitting=1;jiggle=2;" vertex="1" parent="1">
          <mxGeometry x="738" y="431" width="60" height="30" as="geometry" />
        </mxCell>
        <mxCell id="EOlDs6DDx3P3wy995GW2-22" value="&lt;b&gt;Movie Service&lt;/b&gt;" style="text;html=1;align=center;verticalAlign=middle;whiteSpace=wrap;rounded=0;fillColor=#ffe6cc;strokeColor=#d79b00;sketch=1;curveFitting=1;jiggle=2;" vertex="1" parent="1">
          <mxGeometry x="338" y="151" width="60" height="30" as="geometry" />
        </mxCell>
        <mxCell id="EOlDs6DDx3P3wy995GW2-23" value="&lt;b&gt;Booking Service&lt;/b&gt;" style="text;html=1;align=center;verticalAlign=middle;whiteSpace=wrap;rounded=0;fillColor=#ffe6cc;strokeColor=#d79b00;sketch=1;curveFitting=1;jiggle=2;" vertex="1" parent="1">
          <mxGeometry x="338" y="431" width="60" height="30" as="geometry" />
        </mxCell>
        <mxCell id="EOlDs6DDx3P3wy995GW2-24" value="&lt;b&gt;Payment Service&lt;/b&gt;" style="text;html=1;align=center;verticalAlign=middle;whiteSpace=wrap;rounded=0;fillColor=#ffe6cc;strokeColor=#d79b00;sketch=1;curveFitting=1;jiggle=2;" vertex="1" parent="1">
          <mxGeometry x="338" y="711" width="60" height="30" as="geometry" />
        </mxCell>
        <mxCell id="EOlDs6DDx3P3wy995GW2-26" value="&lt;span style=&quot;background-color: transparent; color: light-dark(rgb(51, 51, 51), rgb(193, 193, 193));&quot;&gt;Cities&lt;/span&gt;&lt;br&gt;&lt;span style=&quot;background-color: transparent; color: light-dark(rgb(51, 51, 51), rgb(193, 193, 193));&quot;&gt;Movies&lt;/span&gt;&lt;br&gt;&lt;div&gt;Theaters&lt;/div&gt;" style="text;html=1;align=center;verticalAlign=middle;whiteSpace=wrap;rounded=0;fillColor=#f5f5f5;fontColor=#333333;strokeColor=#666666;" vertex="1" parent="1">
          <mxGeometry x="348" y="201" width="200" height="120" as="geometry" />
        </mxCell>
        <mxCell id="EOlDs6DDx3P3wy995GW2-34" value="Seat&lt;div&gt;Time_Slot&lt;/div&gt;" style="text;html=1;align=center;verticalAlign=middle;whiteSpace=wrap;rounded=0;fillColor=#f5f5f5;fontColor=#333333;strokeColor=#666666;" vertex="1" parent="1">
          <mxGeometry x="348" y="481" width="200" height="120" as="geometry" />
        </mxCell>
        <mxCell id="EOlDs6DDx3P3wy995GW2-35" value="Users CRUD (public, admin)&lt;br&gt;User_Validation" style="text;html=1;align=center;verticalAlign=middle;whiteSpace=wrap;rounded=0;fillColor=#f5f5f5;fontColor=#333333;strokeColor=#666666;" vertex="1" parent="1">
          <mxGeometry x="748" y="481" width="200" height="120" as="geometry" />
        </mxCell>
        <mxCell id="EOlDs6DDx3P3wy995GW2-36" value="Payment&lt;br&gt;Status_Update" style="text;html=1;align=center;verticalAlign=middle;whiteSpace=wrap;rounded=0;fillColor=#f5f5f5;fontColor=#333333;strokeColor=#666666;" vertex="1" parent="1">
          <mxGeometry x="348" y="761" width="200" height="120" as="geometry" />
        </mxCell>
        <mxCell id="EOlDs6DDx3P3wy995GW2-37" value="" style="endArrow=classic;startArrow=classic;html=1;rounded=0;entryX=0;entryY=0.25;entryDx=0;entryDy=0;exitX=0.5;exitY=1;exitDx=0;exitDy=0;strokeWidth=3;fillColor=#e1d5e7;strokeColor=#9673a6;" edge="1" parent="1" source="EOlDs6DDx3P3wy995GW2-26" target="EOlDs6DDx3P3wy995GW2-35">
          <mxGeometry width="50" height="50" relative="1" as="geometry">
            <mxPoint x="508" y="391" as="sourcePoint" />
            <mxPoint x="1194" y="501" as="targetPoint" />
            <Array as="points">
              <mxPoint x="448" y="361" />
              <mxPoint x="648" y="361" />
              <mxPoint x="648" y="511" />
            </Array>
          </mxGeometry>
        </mxCell>
        <mxCell id="EOlDs6DDx3P3wy995GW2-38" value="&lt;font style=&quot;font-size: 15px;&quot;&gt;&lt;i style=&quot;&quot;&gt;&lt;b&gt;&amp;nbsp;REST /verify/:role&amp;nbsp;&lt;/b&gt;&lt;/i&gt;&lt;/font&gt;" style="edgeLabel;html=1;align=center;verticalAlign=middle;resizable=0;points=[];fontColor=light-dark(#6f4483, #ededed);" vertex="1" connectable="0" parent="EOlDs6DDx3P3wy995GW2-37">
          <mxGeometry x="-0.1013" relative="1" as="geometry">
            <mxPoint x="-80" as="offset" />
          </mxGeometry>
        </mxCell>
        <mxCell id="EOlDs6DDx3P3wy995GW2-39" value="" style="endArrow=classic;startArrow=classic;html=1;rounded=0;entryX=0;entryY=0.5;entryDx=0;entryDy=0;exitX=1;exitY=0.5;exitDx=0;exitDy=0;strokeWidth=3;fillColor=#e1d5e7;strokeColor=#9673a6;" edge="1" parent="1" source="EOlDs6DDx3P3wy995GW2-34" target="EOlDs6DDx3P3wy995GW2-35">
          <mxGeometry width="50" height="50" relative="1" as="geometry">
            <mxPoint x="458" y="331" as="sourcePoint" />
            <mxPoint x="718" y="521" as="targetPoint" />
            <Array as="points" />
          </mxGeometry>
        </mxCell>
        <mxCell id="EOlDs6DDx3P3wy995GW2-40" value="&lt;font style=&quot;font-size: 15px;&quot;&gt;&lt;i style=&quot;&quot;&gt;&lt;b&gt;&amp;nbsp;REST /verify/:role&amp;nbsp;&lt;/b&gt;&lt;/i&gt;&lt;/font&gt;" style="edgeLabel;html=1;align=center;verticalAlign=middle;resizable=0;points=[];fontColor=light-dark(#6f4483, #ededed);" vertex="1" connectable="0" parent="EOlDs6DDx3P3wy995GW2-39">
          <mxGeometry x="-0.1013" relative="1" as="geometry">
            <mxPoint x="8" as="offset" />
          </mxGeometry>
        </mxCell>
        <mxCell id="EOlDs6DDx3P3wy995GW2-41" value="" style="endArrow=classic;startArrow=classic;html=1;rounded=0;entryX=0;entryY=0.75;entryDx=0;entryDy=0;exitX=0.5;exitY=0;exitDx=0;exitDy=0;strokeWidth=3;fillColor=#e1d5e7;strokeColor=#9673a6;" edge="1" parent="1" source="EOlDs6DDx3P3wy995GW2-36" target="EOlDs6DDx3P3wy995GW2-35">
          <mxGeometry width="50" height="50" relative="1" as="geometry">
            <mxPoint x="558" y="551" as="sourcePoint" />
            <mxPoint x="758" y="551" as="targetPoint" />
            <Array as="points">
              <mxPoint x="448" y="681" />
              <mxPoint x="648" y="681" />
              <mxPoint x="648" y="571" />
            </Array>
          </mxGeometry>
        </mxCell>
        <mxCell id="EOlDs6DDx3P3wy995GW2-42" value="&lt;font style=&quot;font-size: 15px;&quot;&gt;&lt;i style=&quot;&quot;&gt;&lt;b&gt;&amp;nbsp;REST /verify/:role&amp;nbsp;&lt;/b&gt;&lt;/i&gt;&lt;/font&gt;" style="edgeLabel;html=1;align=center;verticalAlign=middle;resizable=0;points=[];fontColor=light-dark(#6f4483, #ededed);" vertex="1" connectable="0" parent="EOlDs6DDx3P3wy995GW2-41">
          <mxGeometry x="-0.1013" relative="1" as="geometry">
            <mxPoint x="-40" as="offset" />
          </mxGeometry>
        </mxCell>
        <mxCell id="EOlDs6DDx3P3wy995GW2-43" value="" style="endArrow=classic;startArrow=classic;html=1;rounded=0;entryX=0;entryY=0.25;entryDx=0;entryDy=0;entryPerimeter=0;exitX=0.75;exitY=0;exitDx=0;exitDy=0;strokeWidth=3;fillColor=#d5e8d4;strokeColor=#82b366;" edge="1" parent="1" source="EOlDs6DDx3P3wy995GW2-34" target="EOlDs6DDx3P3wy995GW2-10">
          <mxGeometry width="50" height="50" relative="1" as="geometry">
            <mxPoint x="497" y="481" as="sourcePoint" />
            <mxPoint x="1228" y="571" as="targetPoint" />
            <Array as="points">
              <mxPoint x="608" y="311" />
            </Array>
          </mxGeometry>
        </mxCell>
        <mxCell id="EOlDs6DDx3P3wy995GW2-44" value="&lt;font style=&quot;font-size: 15px; color: rgb(0, 102, 0);&quot;&gt;&lt;i style=&quot;&quot;&gt;&lt;b&gt;&amp;nbsp;CRUD&amp;nbsp;&lt;/b&gt;&lt;/i&gt;&lt;/font&gt;" style="edgeLabel;html=1;align=center;verticalAlign=middle;resizable=0;points=[];" vertex="1" connectable="0" parent="EOlDs6DDx3P3wy995GW2-43">
          <mxGeometry x="-0.1013" relative="1" as="geometry">
            <mxPoint x="-15" as="offset" />
          </mxGeometry>
        </mxCell>
        <mxCell id="EOlDs6DDx3P3wy995GW2-45" value="" style="endArrow=classic;startArrow=classic;html=1;rounded=0;exitX=0.75;exitY=0;exitDx=0;exitDy=0;strokeWidth=3;fillColor=#d5e8d4;strokeColor=#82b366;" edge="1" parent="1" source="EOlDs6DDx3P3wy995GW2-36" target="EOlDs6DDx3P3wy995GW2-10">
          <mxGeometry width="50" height="50" relative="1" as="geometry">
            <mxPoint x="498" y="881" as="sourcePoint" />
            <mxPoint x="1209" y="730" as="targetPoint" />
            <Array as="points">
              <mxPoint x="608" y="701" />
              <mxPoint x="1088" y="701" />
            </Array>
          </mxGeometry>
        </mxCell>
        <mxCell id="EOlDs6DDx3P3wy995GW2-46" value="&lt;font style=&quot;font-size: 15px; color: rgb(0, 102, 0);&quot;&gt;&lt;i style=&quot;&quot;&gt;&lt;b&gt;&amp;nbsp;CRUD&amp;nbsp;&lt;/b&gt;&lt;/i&gt;&lt;/font&gt;" style="edgeLabel;html=1;align=center;verticalAlign=middle;resizable=0;points=[];" vertex="1" connectable="0" parent="EOlDs6DDx3P3wy995GW2-45">
          <mxGeometry x="-0.1013" relative="1" as="geometry">
            <mxPoint x="-169" as="offset" />
          </mxGeometry>
        </mxCell>
        <mxCell id="EOlDs6DDx3P3wy995GW2-48" value="" style="endArrow=classic;startArrow=classic;html=1;rounded=0;exitX=1;exitY=0.75;exitDx=0;exitDy=0;strokeWidth=3;fillColor=#e1d5e7;strokeColor=light-dark(#c70000, #9577a3);dashed=1;" edge="1" parent="1" source="EOlDs6DDx3P3wy995GW2-36" target="EOlDs6DDx3P3wy995GW2-11">
          <mxGeometry width="50" height="50" relative="1" as="geometry">
            <mxPoint x="708" y="871" as="sourcePoint" />
            <mxPoint x="1244" y="761" as="targetPoint" />
            <Array as="points">
              <mxPoint x="1088" y="851" />
              <mxPoint x="1088" y="711" />
            </Array>
          </mxGeometry>
        </mxCell>
        <mxCell id="EOlDs6DDx3P3wy995GW2-49" value="&lt;font color=&quot;#990000&quot;&gt;&lt;span style=&quot;font-size: 15px;&quot;&gt;&lt;b&gt;&lt;i&gt;&amp;nbsp;payment.status&lt;/i&gt;&lt;/b&gt;&lt;/span&gt;&lt;/font&gt;" style="edgeLabel;html=1;align=center;verticalAlign=middle;resizable=0;points=[];fontColor=light-dark(#6f4483, #ededed);" vertex="1" connectable="0" parent="EOlDs6DDx3P3wy995GW2-48">
          <mxGeometry x="-0.1013" relative="1" as="geometry">
            <mxPoint x="-76" as="offset" />
          </mxGeometry>
        </mxCell>
        <mxCell id="EOlDs6DDx3P3wy995GW2-50" value="" style="endArrow=classic;startArrow=classic;html=1;rounded=0;entryX=0;entryY=0.75;entryDx=0;entryDy=0;entryPerimeter=0;strokeWidth=3;fillColor=#d5e8d4;strokeColor=#82b366;exitX=1;exitY=0.25;exitDx=0;exitDy=0;" edge="1" parent="1" source="EOlDs6DDx3P3wy995GW2-35" target="EOlDs6DDx3P3wy995GW2-10">
          <mxGeometry width="50" height="50" relative="1" as="geometry">
            <mxPoint x="998" y="481" as="sourcePoint" />
            <mxPoint x="1219" y="340" as="targetPoint" />
            <Array as="points">
              <mxPoint x="1008" y="511" />
              <mxPoint x="1008" y="351" />
            </Array>
          </mxGeometry>
        </mxCell>
        <mxCell id="EOlDs6DDx3P3wy995GW2-51" value="&lt;font style=&quot;font-size: 15px; color: rgb(0, 102, 0);&quot;&gt;&lt;i style=&quot;&quot;&gt;&lt;b&gt;&amp;nbsp;CRUD&amp;nbsp;&lt;/b&gt;&lt;/i&gt;&lt;/font&gt;" style="edgeLabel;html=1;align=center;verticalAlign=middle;resizable=0;points=[];" vertex="1" connectable="0" parent="EOlDs6DDx3P3wy995GW2-50">
          <mxGeometry x="-0.1013" relative="1" as="geometry">
            <mxPoint y="48" as="offset" />
          </mxGeometry>
        </mxCell>
        <mxCell id="EOlDs6DDx3P3wy995GW2-52" value="" style="endArrow=classic;startArrow=classic;html=1;rounded=0;exitX=1;exitY=0.5;exitDx=0;exitDy=0;strokeWidth=3;fillColor=#e1d5e7;strokeColor=light-dark(#c70000, #9577a3);dashed=1;" edge="1" parent="1" source="EOlDs6DDx3P3wy995GW2-26" target="EOlDs6DDx3P3wy995GW2-11">
          <mxGeometry width="50" height="50" relative="1" as="geometry">
            <mxPoint x="558" y="861" as="sourcePoint" />
            <mxPoint x="1255" y="760" as="targetPoint" />
            <Array as="points">
              <mxPoint x="718" y="261" />
              <mxPoint x="1088" y="261" />
            </Array>
          </mxGeometry>
        </mxCell>
        <mxCell id="EOlDs6DDx3P3wy995GW2-53" value="&lt;font color=&quot;#990000&quot;&gt;&lt;span style=&quot;font-size: 15px;&quot;&gt;&lt;b&gt;&lt;i&gt;&amp;nbsp;movie.status&lt;/i&gt;&lt;/b&gt;&lt;/span&gt;&lt;/font&gt;" style="edgeLabel;html=1;align=center;verticalAlign=middle;resizable=0;points=[];fontColor=light-dark(#6f4483, #ededed);" vertex="1" connectable="0" parent="EOlDs6DDx3P3wy995GW2-52">
          <mxGeometry x="-0.1013" relative="1" as="geometry">
            <mxPoint x="-168" as="offset" />
          </mxGeometry>
        </mxCell>
        <mxCell id="EOlDs6DDx3P3wy995GW2-54" value="" style="endArrow=classic;startArrow=classic;html=1;rounded=0;exitX=1;exitY=0.5;exitDx=0;exitDy=0;strokeWidth=3;fillColor=#e1d5e7;strokeColor=light-dark(#c70000, #9577a3);dashed=1;" edge="1" parent="1" source="EOlDs6DDx3P3wy995GW2-34" target="EOlDs6DDx3P3wy995GW2-11">
          <mxGeometry width="50" height="50" relative="1" as="geometry">
            <mxPoint x="558" y="271" as="sourcePoint" />
            <mxPoint x="1256" y="680" as="targetPoint" />
            <Array as="points">
              <mxPoint x="608" y="401" />
              <mxPoint x="1088" y="401" />
            </Array>
          </mxGeometry>
        </mxCell>
        <mxCell id="EOlDs6DDx3P3wy995GW2-55" value="&lt;font color=&quot;#990000&quot;&gt;&lt;span style=&quot;font-size: 15px;&quot;&gt;&lt;b&gt;&lt;i&gt;&amp;nbsp;booking.status&lt;/i&gt;&lt;/b&gt;&lt;/span&gt;&lt;/font&gt;" style="edgeLabel;html=1;align=center;verticalAlign=middle;resizable=0;points=[];fontColor=light-dark(#6f4483, #ededed);" vertex="1" connectable="0" parent="EOlDs6DDx3P3wy995GW2-54">
          <mxGeometry x="-0.1013" relative="1" as="geometry">
            <mxPoint x="-48" as="offset" />
          </mxGeometry>
        </mxCell>
        <mxCell id="EOlDs6DDx3P3wy995GW2-57" value="" style="endArrow=classic;startArrow=classic;html=1;rounded=0;exitX=1;exitY=0.75;exitDx=0;exitDy=0;strokeWidth=3;fillColor=#e1d5e7;strokeColor=light-dark(#c70000, #9577a3);" edge="1" parent="1" source="EOlDs6DDx3P3wy995GW2-35" target="EOlDs6DDx3P3wy995GW2-11">
          <mxGeometry width="50" height="50" relative="1" as="geometry">
            <mxPoint x="558" y="861" as="sourcePoint" />
            <mxPoint x="1228" y="671" as="targetPoint" />
            <Array as="points">
              <mxPoint x="1118" y="571" />
            </Array>
          </mxGeometry>
        </mxCell>
        <mxCell id="EOlDs6DDx3P3wy995GW2-58" value="&lt;font color=&quot;#990000&quot;&gt;&lt;span style=&quot;font-size: 15px;&quot;&gt;&lt;b&gt;&lt;i&gt;&amp;nbsp;Read/Write Events&lt;/i&gt;&lt;/b&gt;&lt;/span&gt;&lt;/font&gt;" style="edgeLabel;html=1;align=center;verticalAlign=middle;resizable=0;points=[];fontColor=light-dark(#6f4483, #ededed);" vertex="1" connectable="0" parent="EOlDs6DDx3P3wy995GW2-57">
          <mxGeometry x="-0.1013" relative="1" as="geometry">
            <mxPoint x="-38" as="offset" />
          </mxGeometry>
        </mxCell>
      </root>
    </mxGraphModel>
  </diagram>
  <diagram id="qHil0ftzHeXsD0P9viyb" name="User Service">
    <mxGraphModel dx="925" dy="1035" grid="1" gridSize="10" guides="1" tooltips="1" connect="1" arrows="1" fold="1" page="1" pageScale="1" pageWidth="850" pageHeight="1100" background="#ffffff" math="0" shadow="0">
      <root>
        <mxCell id="0" />
        <mxCell id="1" parent="0" />
        <mxCell id="TaoH1sZBgyyEPUFz8Zs4-18" value="User Service API&#39;s" style="shape=table;startSize=40;container=1;collapsible=0;childLayout=tableLayout;strokeColor=#9673a6;fontSize=19;fontStyle=1;fillColor=#e1d5e7;strokeWidth=3;" vertex="1" parent="1">
          <mxGeometry x="10" y="20" width="1665" height="1002.3750000000023" as="geometry" />
        </mxCell>
        <mxCell id="TaoH1sZBgyyEPUFz8Zs4-19" value="" style="shape=tableRow;horizontal=0;startSize=0;swimlaneHead=0;swimlaneBody=0;strokeColor=inherit;top=0;left=0;bottom=0;right=0;collapsible=0;dropTarget=0;fillColor=none;points=[[0,0.5],[1,0.5]];portConstraint=eastwest;fontSize=16;" vertex="1" parent="TaoH1sZBgyyEPUFz8Zs4-18">
          <mxGeometry y="40" width="1665" height="120" as="geometry" />
        </mxCell>
        <mxCell id="TaoH1sZBgyyEPUFz8Zs4-92" value="Purpose" style="shape=partialRectangle;html=1;whiteSpace=wrap;connectable=0;strokeColor=#9673a6;overflow=hidden;fillColor=#e1d5e7;top=1;left=1;bottom=1;right=1;pointerEvents=1;fontSize=16;fontStyle=1;labelBackgroundColor=none;strokeWidth=1;sketch=1;curveFitting=1;jiggle=2;" vertex="1" parent="TaoH1sZBgyyEPUFz8Zs4-19">
          <mxGeometry width="225" height="120" as="geometry">
            <mxRectangle width="225" height="120" as="alternateBounds" />
          </mxGeometry>
        </mxCell>
        <mxCell id="TaoH1sZBgyyEPUFz8Zs4-100" value="Method" style="shape=partialRectangle;html=1;whiteSpace=wrap;connectable=0;strokeColor=#9673a6;overflow=hidden;fillColor=#e1d5e7;top=1;left=1;bottom=1;right=1;pointerEvents=1;fontSize=16;fontStyle=1;labelBackgroundColor=none;strokeWidth=1;sketch=1;curveFitting=1;jiggle=2;" vertex="1" parent="TaoH1sZBgyyEPUFz8Zs4-19">
          <mxGeometry x="225" width="160" height="120" as="geometry">
            <mxRectangle width="160" height="120" as="alternateBounds" />
          </mxGeometry>
        </mxCell>
        <mxCell id="TaoH1sZBgyyEPUFz8Zs4-20" value="Path" style="shape=partialRectangle;html=1;whiteSpace=wrap;connectable=0;strokeColor=#9673a6;overflow=hidden;fillColor=#e1d5e7;top=1;left=1;bottom=1;right=1;pointerEvents=1;fontSize=16;fontStyle=1;labelBackgroundColor=none;strokeWidth=1;sketch=1;curveFitting=1;jiggle=2;" vertex="1" parent="TaoH1sZBgyyEPUFz8Zs4-19">
          <mxGeometry x="385" width="200" height="120" as="geometry">
            <mxRectangle width="200" height="120" as="alternateBounds" />
          </mxGeometry>
        </mxCell>
        <mxCell id="TaoH1sZBgyyEPUFz8Zs4-116" value="Headers" style="shape=partialRectangle;html=1;whiteSpace=wrap;connectable=0;strokeColor=#9673a6;overflow=hidden;fillColor=#e1d5e7;top=1;left=1;bottom=1;right=1;pointerEvents=1;fontSize=16;fontStyle=1;labelBackgroundColor=none;strokeWidth=1;sketch=1;curveFitting=1;jiggle=2;" vertex="1" parent="TaoH1sZBgyyEPUFz8Zs4-19">
          <mxGeometry x="585" width="360" height="120" as="geometry">
            <mxRectangle width="360" height="120" as="alternateBounds" />
          </mxGeometry>
        </mxCell>
        <mxCell id="TaoH1sZBgyyEPUFz8Zs4-124" value="Body / Parameters" style="shape=partialRectangle;html=1;whiteSpace=wrap;connectable=0;strokeColor=#9673a6;overflow=hidden;fillColor=#e1d5e7;top=1;left=1;bottom=1;right=1;pointerEvents=1;fontSize=16;fontStyle=1;labelBackgroundColor=none;strokeWidth=1;sketch=1;curveFitting=1;jiggle=2;" vertex="1" parent="TaoH1sZBgyyEPUFz8Zs4-19">
          <mxGeometry x="945" width="280" height="120" as="geometry">
            <mxRectangle width="280" height="120" as="alternateBounds" />
          </mxGeometry>
        </mxCell>
        <mxCell id="TaoH1sZBgyyEPUFz8Zs4-70" value="Response" style="shape=partialRectangle;html=1;whiteSpace=wrap;connectable=0;strokeColor=#9673a6;overflow=hidden;fillColor=#e1d5e7;top=1;left=1;bottom=1;right=1;pointerEvents=1;fontSize=16;fontStyle=1;labelBackgroundColor=none;strokeWidth=1;sketch=1;curveFitting=1;jiggle=2;" vertex="1" parent="TaoH1sZBgyyEPUFz8Zs4-19">
          <mxGeometry x="1225" width="440" height="120" as="geometry">
            <mxRectangle width="440" height="120" as="alternateBounds" />
          </mxGeometry>
        </mxCell>
        <mxCell id="TaoH1sZBgyyEPUFz8Zs4-82" style="shape=tableRow;horizontal=0;startSize=0;swimlaneHead=0;swimlaneBody=0;strokeColor=inherit;top=0;left=0;bottom=0;right=0;collapsible=0;dropTarget=0;fillColor=none;points=[[0,0.5],[1,0.5]];portConstraint=eastwest;fontSize=16;" vertex="1" parent="TaoH1sZBgyyEPUFz8Zs4-18">
          <mxGeometry y="160" width="1665" height="122" as="geometry" />
        </mxCell>
        <mxCell id="TaoH1sZBgyyEPUFz8Zs4-93" value="Public register" style="shape=partialRectangle;html=1;whiteSpace=wrap;connectable=0;strokeColor=inherit;overflow=hidden;fillColor=none;top=0;left=0;bottom=0;right=0;pointerEvents=1;fontSize=16;spacingTop=10;spacingLeft=10;spacingBottom=10;spacingRight=10;fontStyle=0;fontFamily=Helvetica;" vertex="1" parent="TaoH1sZBgyyEPUFz8Zs4-82">
          <mxGeometry width="225" height="122" as="geometry">
            <mxRectangle width="225" height="122" as="alternateBounds" />
          </mxGeometry>
        </mxCell>
        <mxCell id="TaoH1sZBgyyEPUFz8Zs4-101" value="POST" style="shape=partialRectangle;html=1;whiteSpace=wrap;connectable=0;strokeColor=inherit;overflow=hidden;fillColor=none;top=0;left=0;bottom=0;right=0;pointerEvents=1;fontSize=16;spacingTop=10;spacingLeft=10;spacingBottom=10;spacingRight=10;fontStyle=0;fontFamily=Helvetica;" vertex="1" parent="TaoH1sZBgyyEPUFz8Zs4-82">
          <mxGeometry x="225" width="160" height="122" as="geometry">
            <mxRectangle width="160" height="122" as="alternateBounds" />
          </mxGeometry>
        </mxCell>
        <mxCell id="TaoH1sZBgyyEPUFz8Zs4-83" value="/users" style="shape=partialRectangle;html=1;whiteSpace=wrap;connectable=0;strokeColor=inherit;overflow=hidden;fillColor=none;top=0;left=0;bottom=0;right=0;pointerEvents=1;fontSize=16;spacingTop=10;spacingLeft=10;spacingBottom=10;spacingRight=10;fontStyle=0;fontFamily=Helvetica;" vertex="1" parent="TaoH1sZBgyyEPUFz8Zs4-82">
          <mxGeometry x="385" width="200" height="122" as="geometry">
            <mxRectangle width="200" height="122" as="alternateBounds" />
          </mxGeometry>
        </mxCell>
        <mxCell id="TaoH1sZBgyyEPUFz8Zs4-117" value="Content-Type: application/json" style="shape=partialRectangle;html=1;whiteSpace=wrap;connectable=0;strokeColor=inherit;overflow=hidden;fillColor=none;top=0;left=0;bottom=0;right=0;pointerEvents=1;fontSize=16;align=left;spacingLeft=10;spacingTop=10;spacingBottom=10;spacingRight=10;fontStyle=0;fontFamily=Helvetica;" vertex="1" parent="TaoH1sZBgyyEPUFz8Zs4-82">
          <mxGeometry x="585" width="360" height="122" as="geometry">
            <mxRectangle width="360" height="122" as="alternateBounds" />
          </mxGeometry>
        </mxCell>
        <mxCell id="TaoH1sZBgyyEPUFz8Zs4-125" value="{ name, email, password }" style="shape=partialRectangle;html=1;whiteSpace=wrap;connectable=0;strokeColor=inherit;overflow=hidden;fillColor=none;top=0;left=0;bottom=0;right=0;pointerEvents=1;fontSize=16;align=left;spacingLeft=10;spacingTop=10;spacingBottom=10;spacingRight=10;fontStyle=0;fontFamily=Helvetica;" vertex="1" parent="TaoH1sZBgyyEPUFz8Zs4-82">
          <mxGeometry x="945" width="280" height="122" as="geometry">
            <mxRectangle width="280" height="122" as="alternateBounds" />
          </mxGeometry>
        </mxCell>
        <mxCell id="TaoH1sZBgyyEPUFz8Zs4-85" value="&lt;strong data-start=&quot;1408&quot; data-end=&quot;1415&quot;&gt;201&lt;/strong&gt; &lt;code data-start=&quot;1416&quot; data-end=&quot;1452&quot;&gt;{ userId, accessToken, expiresIn }&lt;/code&gt;" style="shape=partialRectangle;html=1;whiteSpace=wrap;connectable=0;strokeColor=inherit;overflow=hidden;fillColor=none;top=0;left=0;bottom=0;right=0;pointerEvents=1;fontSize=16;align=left;spacingLeft=10;spacingTop=10;spacingBottom=10;spacingRight=10;fontStyle=0;fontFamily=Helvetica;" vertex="1" parent="TaoH1sZBgyyEPUFz8Zs4-82">
          <mxGeometry x="1225" width="440" height="122" as="geometry">
            <mxRectangle width="440" height="122" as="alternateBounds" />
          </mxGeometry>
        </mxCell>
        <mxCell id="TaoH1sZBgyyEPUFz8Zs4-23" value="" style="shape=tableRow;horizontal=0;startSize=0;swimlaneHead=0;swimlaneBody=0;strokeColor=inherit;top=0;left=0;bottom=0;right=0;collapsible=0;dropTarget=0;fillColor=none;points=[[0,0.5],[1,0.5]];portConstraint=eastwest;fontSize=16;" vertex="1" parent="TaoH1sZBgyyEPUFz8Zs4-18">
          <mxGeometry y="282" width="1665" height="120" as="geometry" />
        </mxCell>
        <mxCell id="TaoH1sZBgyyEPUFz8Zs4-94" value="Public login" style="shape=partialRectangle;html=1;whiteSpace=wrap;connectable=0;strokeColor=inherit;overflow=hidden;fillColor=none;top=0;left=0;bottom=0;right=0;pointerEvents=1;fontSize=16;spacingTop=10;spacingLeft=10;spacingBottom=10;spacingRight=10;fontStyle=0;fontFamily=Helvetica;" vertex="1" parent="TaoH1sZBgyyEPUFz8Zs4-23">
          <mxGeometry width="225" height="120" as="geometry">
            <mxRectangle width="225" height="120" as="alternateBounds" />
          </mxGeometry>
        </mxCell>
        <mxCell id="TaoH1sZBgyyEPUFz8Zs4-102" value="POST" style="shape=partialRectangle;html=1;whiteSpace=wrap;connectable=0;strokeColor=inherit;overflow=hidden;fillColor=none;top=0;left=0;bottom=0;right=0;pointerEvents=1;fontSize=16;spacingTop=10;spacingLeft=10;spacingBottom=10;spacingRight=10;fontStyle=0;fontFamily=Helvetica;" vertex="1" parent="TaoH1sZBgyyEPUFz8Zs4-23">
          <mxGeometry x="225" width="160" height="120" as="geometry">
            <mxRectangle width="160" height="120" as="alternateBounds" />
          </mxGeometry>
        </mxCell>
        <mxCell id="TaoH1sZBgyyEPUFz8Zs4-24" value="/auth" style="shape=partialRectangle;html=1;whiteSpace=wrap;connectable=0;strokeColor=inherit;overflow=hidden;fillColor=none;top=0;left=0;bottom=0;right=0;pointerEvents=1;fontSize=16;spacingTop=10;spacingLeft=10;spacingBottom=10;spacingRight=10;fontStyle=0;fontFamily=Helvetica;" vertex="1" parent="TaoH1sZBgyyEPUFz8Zs4-23">
          <mxGeometry x="385" width="200" height="120" as="geometry">
            <mxRectangle width="200" height="120" as="alternateBounds" />
          </mxGeometry>
        </mxCell>
        <mxCell id="TaoH1sZBgyyEPUFz8Zs4-118" value="Content-Type: application/json" style="shape=partialRectangle;html=1;whiteSpace=wrap;connectable=0;strokeColor=inherit;overflow=hidden;fillColor=none;top=0;left=0;bottom=0;right=0;pointerEvents=1;fontSize=16;align=left;spacingLeft=10;spacingTop=10;spacingBottom=10;spacingRight=10;fontStyle=0;fontFamily=Helvetica;" vertex="1" parent="TaoH1sZBgyyEPUFz8Zs4-23">
          <mxGeometry x="585" width="360" height="120" as="geometry">
            <mxRectangle width="360" height="120" as="alternateBounds" />
          </mxGeometry>
        </mxCell>
        <mxCell id="TaoH1sZBgyyEPUFz8Zs4-126" value="{ email, password }" style="shape=partialRectangle;html=1;whiteSpace=wrap;connectable=0;strokeColor=inherit;overflow=hidden;fillColor=none;top=0;left=0;bottom=0;right=0;pointerEvents=1;fontSize=16;align=left;spacingLeft=10;spacingTop=10;spacingBottom=10;spacingRight=10;fontStyle=0;fontFamily=Helvetica;" vertex="1" parent="TaoH1sZBgyyEPUFz8Zs4-23">
          <mxGeometry x="945" width="280" height="120" as="geometry">
            <mxRectangle width="280" height="120" as="alternateBounds" />
          </mxGeometry>
        </mxCell>
        <mxCell id="TaoH1sZBgyyEPUFz8Zs4-71" value="&lt;strong data-start=&quot;1597&quot; data-end=&quot;1604&quot;&gt;200&lt;/strong&gt; &lt;code data-start=&quot;1605&quot; data-end=&quot;1633&quot;&gt;{ accessToken, expiresIn }&lt;/code&gt;" style="shape=partialRectangle;html=1;whiteSpace=wrap;connectable=0;strokeColor=inherit;overflow=hidden;fillColor=none;top=0;left=0;bottom=0;right=0;pointerEvents=1;fontSize=16;align=left;spacingLeft=10;spacingTop=10;spacingBottom=10;spacingRight=10;fontStyle=0;fontFamily=Helvetica;" vertex="1" parent="TaoH1sZBgyyEPUFz8Zs4-23">
          <mxGeometry x="1225" width="440" height="120" as="geometry">
            <mxRectangle width="440" height="120" as="alternateBounds" />
          </mxGeometry>
        </mxCell>
        <mxCell id="TaoH1sZBgyyEPUFz8Zs4-54" style="shape=tableRow;horizontal=0;startSize=0;swimlaneHead=0;swimlaneBody=0;strokeColor=inherit;top=0;left=0;bottom=0;right=0;collapsible=0;dropTarget=0;fillColor=none;points=[[0,0.5],[1,0.5]];portConstraint=eastwest;fontSize=16;" vertex="1" parent="TaoH1sZBgyyEPUFz8Zs4-18">
          <mxGeometry y="402" width="1665" height="118" as="geometry" />
        </mxCell>
        <mxCell id="TaoH1sZBgyyEPUFz8Zs4-95" value="Logout (invalidate)" style="shape=partialRectangle;html=1;whiteSpace=wrap;connectable=0;strokeColor=inherit;overflow=hidden;fillColor=none;top=0;left=0;bottom=0;right=0;pointerEvents=1;fontSize=16;spacingTop=10;spacingLeft=10;spacingBottom=10;spacingRight=10;fontStyle=0;fontFamily=Helvetica;" vertex="1" parent="TaoH1sZBgyyEPUFz8Zs4-54">
          <mxGeometry width="225" height="118" as="geometry">
            <mxRectangle width="225" height="118" as="alternateBounds" />
          </mxGeometry>
        </mxCell>
        <mxCell id="TaoH1sZBgyyEPUFz8Zs4-103" value="DELETE" style="shape=partialRectangle;html=1;whiteSpace=wrap;connectable=0;strokeColor=inherit;overflow=hidden;fillColor=none;top=0;left=0;bottom=0;right=0;pointerEvents=1;fontSize=16;spacingTop=10;spacingLeft=10;spacingBottom=10;spacingRight=10;fontStyle=0;fontFamily=Helvetica;" vertex="1" parent="TaoH1sZBgyyEPUFz8Zs4-54">
          <mxGeometry x="225" width="160" height="118" as="geometry">
            <mxRectangle width="160" height="118" as="alternateBounds" />
          </mxGeometry>
        </mxCell>
        <mxCell id="TaoH1sZBgyyEPUFz8Zs4-55" value="/auth" style="shape=partialRectangle;html=1;whiteSpace=wrap;connectable=0;strokeColor=inherit;overflow=hidden;fillColor=none;top=0;left=0;bottom=0;right=0;pointerEvents=1;fontSize=16;spacingTop=10;spacingLeft=10;spacingBottom=10;spacingRight=10;fontStyle=0;fontFamily=Helvetica;" vertex="1" parent="TaoH1sZBgyyEPUFz8Zs4-54">
          <mxGeometry x="385" width="200" height="118" as="geometry">
            <mxRectangle width="200" height="118" as="alternateBounds" />
          </mxGeometry>
        </mxCell>
        <mxCell id="TaoH1sZBgyyEPUFz8Zs4-119" value="Authorization: Bearer &amp;lt;token&amp;gt;" style="shape=partialRectangle;html=1;whiteSpace=wrap;connectable=0;strokeColor=inherit;overflow=hidden;fillColor=none;top=0;left=0;bottom=0;right=0;pointerEvents=1;fontSize=16;align=left;spacingLeft=10;spacingTop=10;spacingBottom=10;spacingRight=10;fontStyle=0;fontFamily=Helvetica;" vertex="1" parent="TaoH1sZBgyyEPUFz8Zs4-54">
          <mxGeometry x="585" width="360" height="118" as="geometry">
            <mxRectangle width="360" height="118" as="alternateBounds" />
          </mxGeometry>
        </mxCell>
        <mxCell id="TaoH1sZBgyyEPUFz8Zs4-127" value="" style="shape=partialRectangle;html=1;whiteSpace=wrap;connectable=0;strokeColor=inherit;overflow=hidden;fillColor=none;top=0;left=0;bottom=0;right=0;pointerEvents=1;fontSize=16;align=left;spacingLeft=10;spacingTop=10;spacingBottom=10;spacingRight=10;fontStyle=0;fontFamily=Helvetica;" vertex="1" parent="TaoH1sZBgyyEPUFz8Zs4-54">
          <mxGeometry x="945" width="280" height="118" as="geometry">
            <mxRectangle width="280" height="118" as="alternateBounds" />
          </mxGeometry>
        </mxCell>
        <mxCell id="TaoH1sZBgyyEPUFz8Zs4-72" value="&lt;strong data-start=&quot;1778&quot; data-end=&quot;1785&quot;&gt;204&lt;/strong&gt; No Content" style="shape=partialRectangle;html=1;whiteSpace=wrap;connectable=0;strokeColor=inherit;overflow=hidden;fillColor=none;top=0;left=0;bottom=0;right=0;pointerEvents=1;fontSize=16;align=left;spacingLeft=10;spacingTop=10;spacingBottom=10;spacingRight=10;fontStyle=0;fontFamily=Helvetica;" vertex="1" parent="TaoH1sZBgyyEPUFz8Zs4-54">
          <mxGeometry x="1225" width="440" height="118" as="geometry">
            <mxRectangle width="440" height="118" as="alternateBounds" />
          </mxGeometry>
        </mxCell>
        <mxCell id="TaoH1sZBgyyEPUFz8Zs4-66" style="shape=tableRow;horizontal=0;startSize=0;swimlaneHead=0;swimlaneBody=0;strokeColor=inherit;top=0;left=0;bottom=0;right=0;collapsible=0;dropTarget=0;fillColor=none;points=[[0,0.5],[1,0.5]];portConstraint=eastwest;fontSize=16;" vertex="1" parent="TaoH1sZBgyyEPUFz8Zs4-18">
          <mxGeometry y="520" width="1665" height="122" as="geometry" />
        </mxCell>
        <mxCell id="TaoH1sZBgyyEPUFz8Zs4-96" value="Create admin" style="shape=partialRectangle;html=1;whiteSpace=wrap;connectable=0;strokeColor=inherit;overflow=hidden;fillColor=none;top=0;left=0;bottom=0;right=0;pointerEvents=1;fontSize=16;spacingTop=10;spacingLeft=10;spacingBottom=10;spacingRight=10;fontStyle=0;fontFamily=Helvetica;" vertex="1" parent="TaoH1sZBgyyEPUFz8Zs4-66">
          <mxGeometry width="225" height="122" as="geometry">
            <mxRectangle width="225" height="122" as="alternateBounds" />
          </mxGeometry>
        </mxCell>
        <mxCell id="TaoH1sZBgyyEPUFz8Zs4-104" value="POST" style="shape=partialRectangle;html=1;whiteSpace=wrap;connectable=0;strokeColor=inherit;overflow=hidden;fillColor=none;top=0;left=0;bottom=0;right=0;pointerEvents=1;fontSize=16;spacingTop=10;spacingLeft=10;spacingBottom=10;spacingRight=10;fontStyle=0;fontFamily=Helvetica;" vertex="1" parent="TaoH1sZBgyyEPUFz8Zs4-66">
          <mxGeometry x="225" width="160" height="122" as="geometry">
            <mxRectangle width="160" height="122" as="alternateBounds" />
          </mxGeometry>
        </mxCell>
        <mxCell id="TaoH1sZBgyyEPUFz8Zs4-67" value="/admin" style="shape=partialRectangle;html=1;whiteSpace=wrap;connectable=0;strokeColor=inherit;overflow=hidden;fillColor=none;top=0;left=0;bottom=0;right=0;pointerEvents=1;fontSize=16;spacingTop=10;spacingLeft=10;spacingBottom=10;spacingRight=10;fontStyle=0;fontFamily=Helvetica;" vertex="1" parent="TaoH1sZBgyyEPUFz8Zs4-66">
          <mxGeometry x="385" width="200" height="122" as="geometry">
            <mxRectangle width="200" height="122" as="alternateBounds" />
          </mxGeometry>
        </mxCell>
        <mxCell id="TaoH1sZBgyyEPUFz8Zs4-120" value="Authorization: Bearer &amp;lt;token&amp;gt;&lt;br&gt;Content-Type: application/json" style="shape=partialRectangle;html=1;whiteSpace=wrap;connectable=0;strokeColor=inherit;overflow=hidden;fillColor=none;top=0;left=0;bottom=0;right=0;pointerEvents=1;fontSize=16;align=left;spacingLeft=10;spacingTop=10;spacingBottom=10;spacingRight=10;fontStyle=0;fontFamily=Helvetica;" vertex="1" parent="TaoH1sZBgyyEPUFz8Zs4-66">
          <mxGeometry x="585" width="360" height="122" as="geometry">
            <mxRectangle width="360" height="122" as="alternateBounds" />
          </mxGeometry>
        </mxCell>
        <mxCell id="TaoH1sZBgyyEPUFz8Zs4-128" value="{ name, email, password }" style="shape=partialRectangle;html=1;whiteSpace=wrap;connectable=0;strokeColor=inherit;overflow=hidden;fillColor=none;top=0;left=0;bottom=0;right=0;pointerEvents=1;fontSize=16;align=left;spacingLeft=10;spacingTop=10;spacingBottom=10;spacingRight=10;fontStyle=0;fontFamily=Helvetica;" vertex="1" parent="TaoH1sZBgyyEPUFz8Zs4-66">
          <mxGeometry x="945" width="280" height="122" as="geometry">
            <mxRectangle width="280" height="122" as="alternateBounds" />
          </mxGeometry>
        </mxCell>
        <mxCell id="TaoH1sZBgyyEPUFz8Zs4-73" value="&lt;strong data-start=&quot;1995&quot; data-end=&quot;2002&quot;&gt;201&lt;/strong&gt; &lt;code data-start=&quot;2003&quot; data-end=&quot;2041&quot;&gt;{ userId, role: &quot;admin&quot;, createdAt }&lt;/code&gt;" style="shape=partialRectangle;html=1;whiteSpace=wrap;connectable=0;strokeColor=inherit;overflow=hidden;fillColor=none;top=0;left=0;bottom=0;right=0;pointerEvents=1;fontSize=16;align=left;spacingLeft=10;spacingTop=10;spacingBottom=10;spacingRight=10;fontStyle=0;fontFamily=Helvetica;" vertex="1" parent="TaoH1sZBgyyEPUFz8Zs4-66">
          <mxGeometry x="1225" width="440" height="122" as="geometry">
            <mxRectangle width="440" height="122" as="alternateBounds" />
          </mxGeometry>
        </mxCell>
        <mxCell id="TaoH1sZBgyyEPUFz8Zs4-87" style="shape=tableRow;horizontal=0;startSize=0;swimlaneHead=0;swimlaneBody=0;strokeColor=inherit;top=0;left=0;bottom=0;right=0;collapsible=0;dropTarget=0;fillColor=none;points=[[0,0.5],[1,0.5]];portConstraint=eastwest;fontSize=16;" vertex="1" parent="TaoH1sZBgyyEPUFz8Zs4-18">
          <mxGeometry y="642" width="1665" height="120" as="geometry" />
        </mxCell>
        <mxCell id="TaoH1sZBgyyEPUFz8Zs4-97" value="Get user profile" style="shape=partialRectangle;html=1;whiteSpace=wrap;connectable=0;strokeColor=inherit;overflow=hidden;fillColor=none;top=0;left=0;bottom=0;right=0;pointerEvents=1;fontSize=16;spacingTop=10;spacingLeft=10;spacingBottom=10;spacingRight=10;fontStyle=0;fontFamily=Helvetica;" vertex="1" parent="TaoH1sZBgyyEPUFz8Zs4-87">
          <mxGeometry width="225" height="120" as="geometry">
            <mxRectangle width="225" height="120" as="alternateBounds" />
          </mxGeometry>
        </mxCell>
        <mxCell id="TaoH1sZBgyyEPUFz8Zs4-105" value="GET" style="shape=partialRectangle;html=1;whiteSpace=wrap;connectable=0;strokeColor=inherit;overflow=hidden;fillColor=none;top=0;left=0;bottom=0;right=0;pointerEvents=1;fontSize=16;spacingTop=10;spacingLeft=10;spacingBottom=10;spacingRight=10;fontStyle=0;fontFamily=Helvetica;" vertex="1" parent="TaoH1sZBgyyEPUFz8Zs4-87">
          <mxGeometry x="225" width="160" height="120" as="geometry">
            <mxRectangle width="160" height="120" as="alternateBounds" />
          </mxGeometry>
        </mxCell>
        <mxCell id="TaoH1sZBgyyEPUFz8Zs4-88" value="/users/:userId" style="shape=partialRectangle;html=1;whiteSpace=wrap;connectable=0;strokeColor=inherit;overflow=hidden;fillColor=none;top=0;left=0;bottom=0;right=0;pointerEvents=1;fontSize=16;spacingTop=10;spacingLeft=10;spacingBottom=10;spacingRight=10;fontStyle=0;fontFamily=Helvetica;" vertex="1" parent="TaoH1sZBgyyEPUFz8Zs4-87">
          <mxGeometry x="385" width="200" height="120" as="geometry">
            <mxRectangle width="200" height="120" as="alternateBounds" />
          </mxGeometry>
        </mxCell>
        <mxCell id="TaoH1sZBgyyEPUFz8Zs4-121" value="Authorization: Bearer &amp;lt;token&amp;gt;" style="shape=partialRectangle;html=1;whiteSpace=wrap;connectable=0;strokeColor=inherit;overflow=hidden;fillColor=none;top=0;left=0;bottom=0;right=0;pointerEvents=1;fontSize=16;align=left;spacingLeft=10;spacingTop=10;spacingBottom=10;spacingRight=10;fontStyle=0;fontFamily=Helvetica;" vertex="1" parent="TaoH1sZBgyyEPUFz8Zs4-87">
          <mxGeometry x="585" width="360" height="120" as="geometry">
            <mxRectangle width="360" height="120" as="alternateBounds" />
          </mxGeometry>
        </mxCell>
        <mxCell id="TaoH1sZBgyyEPUFz8Zs4-129" value="path param &lt;code data-start=&quot;2152&quot; data-end=&quot;2160&quot;&gt;userId&lt;/code&gt;" style="shape=partialRectangle;html=1;whiteSpace=wrap;connectable=0;strokeColor=inherit;overflow=hidden;fillColor=none;top=0;left=0;bottom=0;right=0;pointerEvents=1;fontSize=16;align=left;spacingLeft=10;spacingTop=10;spacingBottom=10;spacingRight=10;fontStyle=0;fontFamily=Helvetica;" vertex="1" parent="TaoH1sZBgyyEPUFz8Zs4-87">
          <mxGeometry x="945" width="280" height="120" as="geometry">
            <mxRectangle width="280" height="120" as="alternateBounds" />
          </mxGeometry>
        </mxCell>
        <mxCell id="TaoH1sZBgyyEPUFz8Zs4-90" value="&lt;strong data-start=&quot;2186&quot; data-end=&quot;2193&quot;&gt;200&lt;/strong&gt; &lt;code data-start=&quot;2194&quot; data-end=&quot;2225&quot;&gt;{ userId, name, email, role }&lt;/code&gt;" style="shape=partialRectangle;html=1;whiteSpace=wrap;connectable=0;strokeColor=inherit;overflow=hidden;fillColor=none;top=0;left=0;bottom=0;right=0;pointerEvents=1;fontSize=16;align=left;spacingLeft=10;spacingTop=10;spacingBottom=10;spacingRight=10;fontStyle=0;fontFamily=Helvetica;" vertex="1" parent="TaoH1sZBgyyEPUFz8Zs4-87">
          <mxGeometry x="1225" width="440" height="120" as="geometry">
            <mxRectangle width="440" height="120" as="alternateBounds" />
          </mxGeometry>
        </mxCell>
        <mxCell id="TaoH1sZBgyyEPUFz8Zs4-77" style="shape=tableRow;horizontal=0;startSize=0;swimlaneHead=0;swimlaneBody=0;strokeColor=inherit;top=0;left=0;bottom=0;right=0;collapsible=0;dropTarget=0;fillColor=none;points=[[0,0.5],[1,0.5]];portConstraint=eastwest;fontSize=16;" vertex="1" parent="TaoH1sZBgyyEPUFz8Zs4-18">
          <mxGeometry y="762" width="1665" height="120" as="geometry" />
        </mxCell>
        <mxCell id="TaoH1sZBgyyEPUFz8Zs4-98" value="Delete user" style="shape=partialRectangle;html=1;whiteSpace=wrap;connectable=0;strokeColor=inherit;overflow=hidden;fillColor=none;top=0;left=0;bottom=0;right=0;pointerEvents=1;fontSize=16;spacingTop=10;spacingLeft=10;spacingBottom=10;spacingRight=10;fontStyle=0;fontFamily=Helvetica;" vertex="1" parent="TaoH1sZBgyyEPUFz8Zs4-77">
          <mxGeometry width="225" height="120" as="geometry">
            <mxRectangle width="225" height="120" as="alternateBounds" />
          </mxGeometry>
        </mxCell>
        <mxCell id="TaoH1sZBgyyEPUFz8Zs4-106" value="DELETE" style="shape=partialRectangle;html=1;whiteSpace=wrap;connectable=0;strokeColor=inherit;overflow=hidden;fillColor=none;top=0;left=0;bottom=0;right=0;pointerEvents=1;fontSize=16;spacingTop=10;spacingLeft=10;spacingBottom=10;spacingRight=10;fontStyle=0;fontFamily=Helvetica;" vertex="1" parent="TaoH1sZBgyyEPUFz8Zs4-77">
          <mxGeometry x="225" width="160" height="120" as="geometry">
            <mxRectangle width="160" height="120" as="alternateBounds" />
          </mxGeometry>
        </mxCell>
        <mxCell id="TaoH1sZBgyyEPUFz8Zs4-78" value="/users/:userId" style="shape=partialRectangle;html=1;whiteSpace=wrap;connectable=0;strokeColor=inherit;overflow=hidden;fillColor=none;top=0;left=0;bottom=0;right=0;pointerEvents=1;fontSize=16;spacingTop=10;spacingLeft=10;spacingBottom=10;spacingRight=10;fontStyle=0;fontFamily=Helvetica;" vertex="1" parent="TaoH1sZBgyyEPUFz8Zs4-77">
          <mxGeometry x="385" width="200" height="120" as="geometry">
            <mxRectangle width="200" height="120" as="alternateBounds" />
          </mxGeometry>
        </mxCell>
        <mxCell id="TaoH1sZBgyyEPUFz8Zs4-122" value="Authorization: Bearer &amp;lt;token&amp;gt;" style="shape=partialRectangle;html=1;whiteSpace=wrap;connectable=0;strokeColor=inherit;overflow=hidden;fillColor=none;top=0;left=0;bottom=0;right=0;pointerEvents=1;fontSize=16;align=left;spacingLeft=10;spacingTop=10;spacingBottom=10;spacingRight=10;fontStyle=0;fontFamily=Helvetica;" vertex="1" parent="TaoH1sZBgyyEPUFz8Zs4-77">
          <mxGeometry x="585" width="360" height="120" as="geometry">
            <mxRectangle width="360" height="120" as="alternateBounds" />
          </mxGeometry>
        </mxCell>
        <mxCell id="TaoH1sZBgyyEPUFz8Zs4-130" value="path param &lt;code data-start=&quot;2336&quot; data-end=&quot;2344&quot;&gt;userId&lt;/code&gt;&lt;br&gt;token = admin OR owner" style="shape=partialRectangle;html=1;whiteSpace=wrap;connectable=0;strokeColor=inherit;overflow=hidden;fillColor=none;top=0;left=0;bottom=0;right=0;pointerEvents=1;fontSize=16;align=left;spacingLeft=10;spacingTop=10;spacingBottom=10;spacingRight=10;fontStyle=0;fontFamily=Helvetica;" vertex="1" parent="TaoH1sZBgyyEPUFz8Zs4-77">
          <mxGeometry x="945" width="280" height="120" as="geometry">
            <mxRectangle width="280" height="120" as="alternateBounds" />
          </mxGeometry>
        </mxCell>
        <mxCell id="TaoH1sZBgyyEPUFz8Zs4-80" value="&lt;strong data-start=&quot;2373&quot; data-end=&quot;2380&quot;&gt;204&lt;/strong&gt; No Content" style="shape=partialRectangle;html=1;whiteSpace=wrap;connectable=0;strokeColor=inherit;overflow=hidden;fillColor=none;top=0;left=0;bottom=0;right=0;pointerEvents=1;fontSize=16;align=left;spacingLeft=10;spacingTop=10;spacingBottom=10;spacingRight=10;fontStyle=0;fontFamily=Helvetica;" vertex="1" parent="TaoH1sZBgyyEPUFz8Zs4-77">
          <mxGeometry x="1225" width="440" height="120" as="geometry">
            <mxRectangle width="440" height="120" as="alternateBounds" />
          </mxGeometry>
        </mxCell>
        <mxCell id="TaoH1sZBgyyEPUFz8Zs4-35" value="" style="shape=tableRow;horizontal=0;startSize=0;swimlaneHead=0;swimlaneBody=0;strokeColor=inherit;top=0;left=0;bottom=0;right=0;collapsible=0;dropTarget=0;fillColor=none;points=[[0,0.5],[1,0.5]];portConstraint=eastwest;fontSize=16;" vertex="1" parent="TaoH1sZBgyyEPUFz8Zs4-18">
          <mxGeometry y="882" width="1665" height="120" as="geometry" />
        </mxCell>
        <mxCell id="TaoH1sZBgyyEPUFz8Zs4-99" value="Verify token &amp;amp; role" style="shape=partialRectangle;html=1;whiteSpace=wrap;connectable=0;strokeColor=inherit;overflow=hidden;fillColor=none;top=0;left=0;bottom=0;right=0;pointerEvents=1;fontSize=16;spacingTop=10;spacingLeft=10;spacingBottom=10;spacingRight=10;fontStyle=0;fontFamily=Helvetica;" vertex="1" parent="TaoH1sZBgyyEPUFz8Zs4-35">
          <mxGeometry width="225" height="120" as="geometry">
            <mxRectangle width="225" height="120" as="alternateBounds" />
          </mxGeometry>
        </mxCell>
        <mxCell id="TaoH1sZBgyyEPUFz8Zs4-107" value="GET" style="shape=partialRectangle;html=1;whiteSpace=wrap;connectable=0;strokeColor=inherit;overflow=hidden;fillColor=none;top=0;left=0;bottom=0;right=0;pointerEvents=1;fontSize=16;spacingTop=10;spacingLeft=10;spacingBottom=10;spacingRight=10;fontStyle=0;fontFamily=Helvetica;" vertex="1" parent="TaoH1sZBgyyEPUFz8Zs4-35">
          <mxGeometry x="225" width="160" height="120" as="geometry">
            <mxRectangle width="160" height="120" as="alternateBounds" />
          </mxGeometry>
        </mxCell>
        <mxCell id="TaoH1sZBgyyEPUFz8Zs4-36" value="/auth/verify?role=:role" style="shape=partialRectangle;html=1;whiteSpace=wrap;connectable=0;strokeColor=inherit;overflow=hidden;fillColor=none;top=0;left=0;bottom=0;right=0;pointerEvents=1;fontSize=16;spacingTop=10;spacingLeft=10;spacingBottom=10;spacingRight=10;fontStyle=0;fontFamily=Helvetica;" vertex="1" parent="TaoH1sZBgyyEPUFz8Zs4-35">
          <mxGeometry x="385" width="200" height="120" as="geometry">
            <mxRectangle width="200" height="120" as="alternateBounds" />
          </mxGeometry>
        </mxCell>
        <mxCell id="TaoH1sZBgyyEPUFz8Zs4-123" value="Authorization: Bearer &amp;lt;token&amp;gt;" style="shape=partialRectangle;html=1;whiteSpace=wrap;connectable=0;strokeColor=inherit;overflow=hidden;fillColor=none;top=0;left=0;bottom=0;right=0;pointerEvents=1;fontSize=16;spacingTop=10;spacingLeft=10;spacingBottom=10;spacingRight=10;align=left;fontStyle=0;fontFamily=Helvetica;" vertex="1" parent="TaoH1sZBgyyEPUFz8Zs4-35">
          <mxGeometry x="585" width="360" height="120" as="geometry">
            <mxRectangle width="360" height="120" as="alternateBounds" />
          </mxGeometry>
        </mxCell>
        <mxCell id="TaoH1sZBgyyEPUFz8Zs4-131" value="query param role=public" style="shape=partialRectangle;html=1;whiteSpace=wrap;connectable=0;strokeColor=inherit;overflow=hidden;fillColor=none;top=0;left=0;bottom=0;right=0;pointerEvents=1;fontSize=16;spacingTop=10;spacingLeft=10;spacingBottom=10;spacingRight=10;align=left;fontStyle=0;fontFamily=Helvetica;" vertex="1" parent="TaoH1sZBgyyEPUFz8Zs4-35">
          <mxGeometry x="945" width="280" height="120" as="geometry">
            <mxRectangle width="280" height="120" as="alternateBounds" />
          </mxGeometry>
        </mxCell>
        <mxCell id="TaoH1sZBgyyEPUFz8Zs4-76" value="&lt;b&gt;200 &lt;/b&gt;{ authorized: &quot;true&quot;, userId, role}" style="shape=partialRectangle;html=1;whiteSpace=wrap;connectable=0;strokeColor=inherit;overflow=hidden;fillColor=none;top=0;left=0;bottom=0;right=0;pointerEvents=1;fontSize=16;spacingTop=10;spacingLeft=10;spacingBottom=10;spacingRight=10;align=left;fontStyle=0;fontFamily=Helvetica;" vertex="1" parent="TaoH1sZBgyyEPUFz8Zs4-35">
          <mxGeometry x="1225" width="440" height="120" as="geometry">
            <mxRectangle width="440" height="120" as="alternateBounds" />
          </mxGeometry>
        </mxCell>
      </root>
    </mxGraphModel>
  </diagram>
  <diagram id="x_z9-CWtVOMTLSLztDNu" name="Data Relations">
    <mxGraphModel dx="950" dy="432" grid="1" gridSize="10" guides="1" tooltips="1" connect="1" arrows="1" fold="1" page="1" pageScale="1" pageWidth="850" pageHeight="1100" math="0" shadow="0">
      <root>
        <mxCell id="0" />
        <mxCell id="1" parent="0" />
        <mxCell id="2Fpas8rZi4Nve_pTARP1-1" value="" style="rounded=0;whiteSpace=wrap;html=1;fillColor=#fff2cc;strokeColor=#d6b656;" vertex="1" parent="1">
          <mxGeometry x="40" y="40" width="770" height="300" as="geometry" />
        </mxCell>
        <mxCell id="2Fpas8rZi4Nve_pTARP1-2" value="User Service" style="text;html=1;align=center;verticalAlign=middle;whiteSpace=wrap;rounded=0;fillColor=#ffe6cc;strokeColor=#d79b00;" vertex="1" parent="1">
          <mxGeometry x="50" y="50" width="100" height="30" as="geometry" />
        </mxCell>
        <mxCell id="2Fpas8rZi4Nve_pTARP1-3" value="USER" style="shape=table;startSize=30;container=1;collapsible=1;childLayout=tableLayout;fixedRows=1;rowLines=0;fontStyle=1;align=center;resizeLast=1;" vertex="1" parent="1">
          <mxGeometry x="90" y="110" width="221.5" height="190" as="geometry" />
        </mxCell>
        <mxCell id="2Fpas8rZi4Nve_pTARP1-4" value="" style="shape=partialRectangle;collapsible=0;dropTarget=0;pointerEvents=0;fillColor=none;points=[[0,0.5],[1,0.5]];portConstraint=eastwest;top=0;left=0;right=0;bottom=1;" vertex="1" parent="2Fpas8rZi4Nve_pTARP1-3">
          <mxGeometry y="30" width="221.5" height="30" as="geometry" />
        </mxCell>
        <mxCell id="2Fpas8rZi4Nve_pTARP1-5" value="PK" style="shape=partialRectangle;overflow=hidden;connectable=0;fillColor=none;top=0;left=0;bottom=0;right=0;fontStyle=1;" vertex="1" parent="2Fpas8rZi4Nve_pTARP1-4">
          <mxGeometry width="30" height="30" as="geometry">
            <mxRectangle width="30" height="30" as="alternateBounds" />
          </mxGeometry>
        </mxCell>
        <mxCell id="2Fpas8rZi4Nve_pTARP1-6" value="_id" style="shape=partialRectangle;overflow=hidden;connectable=0;fillColor=none;top=0;left=0;bottom=0;right=0;align=left;spacingLeft=6;fontStyle=5;" vertex="1" parent="2Fpas8rZi4Nve_pTARP1-4">
          <mxGeometry x="30" width="191.5" height="30" as="geometry">
            <mxRectangle width="191.5" height="30" as="alternateBounds" />
          </mxGeometry>
        </mxCell>
        <mxCell id="2Fpas8rZi4Nve_pTARP1-10" value="" style="shape=partialRectangle;collapsible=0;dropTarget=0;pointerEvents=0;fillColor=none;points=[[0,0.5],[1,0.5]];portConstraint=eastwest;top=0;left=0;right=0;bottom=0;" vertex="1" parent="2Fpas8rZi4Nve_pTARP1-3">
          <mxGeometry y="60" width="221.5" height="130" as="geometry" />
        </mxCell>
        <mxCell id="2Fpas8rZi4Nve_pTARP1-11" value="" style="shape=partialRectangle;overflow=hidden;connectable=0;fillColor=none;top=0;left=0;bottom=0;right=0;" vertex="1" parent="2Fpas8rZi4Nve_pTARP1-10">
          <mxGeometry width="30" height="130" as="geometry">
            <mxRectangle width="30" height="130" as="alternateBounds" />
          </mxGeometry>
        </mxCell>
        <mxCell id="2Fpas8rZi4Nve_pTARP1-12" value=" name: String,&#xa; email: String,&#xa;password: String,&#xa; role: String,&#xa; createdAt: Date,&#xa;updatedAt: Date" style="shape=partialRectangle;overflow=hidden;connectable=0;fillColor=none;top=0;left=0;bottom=0;right=0;align=left;spacingLeft=6;" vertex="1" parent="2Fpas8rZi4Nve_pTARP1-10">
          <mxGeometry x="30" width="191.5" height="130" as="geometry">
            <mxRectangle width="191.5" height="130" as="alternateBounds" />
          </mxGeometry>
        </mxCell>
        <mxCell id="2Fpas8rZi4Nve_pTARP1-13" value="USER_SESSION" style="shape=table;startSize=30;container=1;collapsible=1;childLayout=tableLayout;fixedRows=1;rowLines=0;fontStyle=1;align=center;resizeLast=1;" vertex="1" parent="1">
          <mxGeometry x="390" y="110" width="221.5" height="170" as="geometry" />
        </mxCell>
        <mxCell id="2Fpas8rZi4Nve_pTARP1-14" value="" style="shape=partialRectangle;collapsible=0;dropTarget=0;pointerEvents=0;fillColor=none;points=[[0,0.5],[1,0.5]];portConstraint=eastwest;top=0;left=0;right=0;bottom=1;" vertex="1" parent="2Fpas8rZi4Nve_pTARP1-13">
          <mxGeometry y="30" width="221.5" height="30" as="geometry" />
        </mxCell>
        <mxCell id="2Fpas8rZi4Nve_pTARP1-15" value="PK" style="shape=partialRectangle;overflow=hidden;connectable=0;fillColor=none;top=0;left=0;bottom=0;right=0;fontStyle=1;" vertex="1" parent="2Fpas8rZi4Nve_pTARP1-14">
          <mxGeometry width="30" height="30" as="geometry">
            <mxRectangle width="30" height="30" as="alternateBounds" />
          </mxGeometry>
        </mxCell>
        <mxCell id="2Fpas8rZi4Nve_pTARP1-16" value="_id" style="shape=partialRectangle;overflow=hidden;connectable=0;fillColor=none;top=0;left=0;bottom=0;right=0;align=left;spacingLeft=6;fontStyle=5;" vertex="1" parent="2Fpas8rZi4Nve_pTARP1-14">
          <mxGeometry x="30" width="191.5" height="30" as="geometry">
            <mxRectangle width="191.5" height="30" as="alternateBounds" />
          </mxGeometry>
        </mxCell>
        <mxCell id="2Fpas8rZi4Nve_pTARP1-23" style="shape=partialRectangle;collapsible=0;dropTarget=0;pointerEvents=0;fillColor=none;points=[[0,0.5],[1,0.5]];portConstraint=eastwest;top=0;left=0;right=0;bottom=1;" vertex="1" parent="2Fpas8rZi4Nve_pTARP1-13">
          <mxGeometry y="60" width="221.5" height="30" as="geometry" />
        </mxCell>
        <mxCell id="2Fpas8rZi4Nve_pTARP1-24" value="FK" style="shape=partialRectangle;overflow=hidden;connectable=0;fillColor=none;top=0;left=0;bottom=0;right=0;fontStyle=1;" vertex="1" parent="2Fpas8rZi4Nve_pTARP1-23">
          <mxGeometry width="30" height="30" as="geometry">
            <mxRectangle width="30" height="30" as="alternateBounds" />
          </mxGeometry>
        </mxCell>
        <mxCell id="2Fpas8rZi4Nve_pTARP1-25" value="USER" style="shape=partialRectangle;overflow=hidden;connectable=0;fillColor=none;top=0;left=0;bottom=0;right=0;align=left;spacingLeft=6;fontStyle=5;" vertex="1" parent="2Fpas8rZi4Nve_pTARP1-23">
          <mxGeometry x="30" width="191.5" height="30" as="geometry">
            <mxRectangle width="191.5" height="30" as="alternateBounds" />
          </mxGeometry>
        </mxCell>
        <mxCell id="2Fpas8rZi4Nve_pTARP1-17" value="" style="shape=partialRectangle;collapsible=0;dropTarget=0;pointerEvents=0;fillColor=none;points=[[0,0.5],[1,0.5]];portConstraint=eastwest;top=0;left=0;right=0;bottom=0;" vertex="1" parent="2Fpas8rZi4Nve_pTARP1-13">
          <mxGeometry y="90" width="221.5" height="80" as="geometry" />
        </mxCell>
        <mxCell id="2Fpas8rZi4Nve_pTARP1-18" value="" style="shape=partialRectangle;overflow=hidden;connectable=0;fillColor=none;top=0;left=0;bottom=0;right=0;" vertex="1" parent="2Fpas8rZi4Nve_pTARP1-17">
          <mxGeometry width="30" height="80" as="geometry">
            <mxRectangle width="30" height="80" as="alternateBounds" />
          </mxGeometry>
        </mxCell>
        <mxCell id="2Fpas8rZi4Nve_pTARP1-19" value=" jwtToken: String,&#xa; createdAt: Date,&#xa;expiresAt: Date" style="shape=partialRectangle;overflow=hidden;connectable=0;fillColor=none;top=0;left=0;bottom=0;right=0;align=left;spacingLeft=6;" vertex="1" parent="2Fpas8rZi4Nve_pTARP1-17">
          <mxGeometry x="30" width="191.5" height="80" as="geometry">
            <mxRectangle width="191.5" height="80" as="alternateBounds" />
          </mxGeometry>
        </mxCell>
        <mxCell id="2Fpas8rZi4Nve_pTARP1-26" value="" style="edgeStyle=entityRelationEdgeStyle;fontSize=12;html=1;endArrow=ERmandOne;startArrow=ERmandOne;rounded=0;" edge="1" parent="1" source="2Fpas8rZi4Nve_pTARP1-4" target="2Fpas8rZi4Nve_pTARP1-23">
          <mxGeometry width="100" height="100" relative="1" as="geometry">
            <mxPoint x="390" y="200" as="sourcePoint" />
            <mxPoint x="490" y="100" as="targetPoint" />
          </mxGeometry>
        </mxCell>
        <mxCell id="2Fpas8rZi4Nve_pTARP1-27" value="" style="rounded=0;whiteSpace=wrap;html=1;fillColor=#fff2cc;strokeColor=#d6b656;" vertex="1" parent="1">
          <mxGeometry x="40" y="380" width="770" height="300" as="geometry" />
        </mxCell>
        <mxCell id="2Fpas8rZi4Nve_pTARP1-28" value="Movie Service" style="text;html=1;align=center;verticalAlign=middle;whiteSpace=wrap;rounded=0;fillColor=#ffe6cc;strokeColor=#d79b00;" vertex="1" parent="1">
          <mxGeometry x="50" y="390" width="100" height="30" as="geometry" />
        </mxCell>
      </root>
    </mxGraphModel>
  </diagram>
</mxfile>
